<svg width="466" height="472" viewBox="0 0 466 472" fill="none" xmlns="http://www.w3.org/2000/svg">
<path d="M233 471.976C361.682 471.976 466 441.593 466 404.112C466 366.632 361.682 336.249 233 336.249C104.318 336.249 0 366.632 0 404.112C0 441.593 104.318 471.976 233 471.976Z" fill="#929601"/>
<mask id="mask0_2016_774" style="mask-type:luminance" maskUnits="userSpaceOnUse" x="0" y="336" width="466" height="136">
<path d="M233 471.976C361.682 471.976 466 441.593 466 404.112C466 366.632 361.682 336.249 233 336.249C104.318 336.249 0 366.632 0 404.112C0 441.593 104.318 471.976 233 471.976Z" fill="white"/>
</mask>
<g mask="url(#mask0_2016_774)">
<path fillRule="evenodd" clip-rule="evenodd" d="M228.645 334.949H255.676L404.216 467.348H299.647L228.645 334.949Z" fill="url(#paint0_linear_2016_774)"/>
<path fillRule="evenodd" clip-rule="evenodd" d="M260.207 334.949H277.771L556.552 458.087H476.746L260.207 334.949Z" fill="url(#paint1_linear_2016_774)"/>
<path fillRule="evenodd" clip-rule="evenodd" d="M283.316 334.949H303.121L474.307 387.088L462.917 401.149L283.316 334.949Z" fill="url(#paint2_linear_2016_774)"/>
<path fillRule="evenodd" clip-rule="evenodd" d="M316.43 334.949H338.732L474.307 360.604L462.919 377.143L316.43 334.949ZM359.556 334.949L474.309 356.045V341.515L359.556 334.949Z" fill="#DDDDF8"/>
</g>
<mask id="mask1_2016_774" style="mask-type:luminance" maskUnits="userSpaceOnUse" x="0" y="336" width="466" height="136">
<path d="M233 471.976C361.682 471.976 466 441.593 466 404.112C466 366.632 361.682 336.249 233 336.249C104.318 336.249 0 366.632 0 404.112C0 441.593 104.318 471.976 233 471.976Z" fill="white"/>
</mask>
<g mask="url(#mask1_2016_774)">
<path fillRule="evenodd" clip-rule="evenodd" d="M228.645 334.949H201.613L53.0732 467.348H157.642L228.645 334.949Z" fill="url(#paint3_linear_2016_774)"/>
<path fillRule="evenodd" clip-rule="evenodd" d="M197.078 334.949H179.514L-99.2668 458.087H-19.4604L197.078 334.949Z" fill="url(#paint4_linear_2016_774)"/>
<path fillRule="evenodd" clip-rule="evenodd" d="M173.969 334.949H154.164L-17.0213 387.088L-5.63155 401.149L173.969 334.949Z" fill="url(#paint5_linear_2016_774)"/>
<path fillRule="evenodd" clip-rule="evenodd" d="M140.857 334.949H118.555L-17.0195 360.606L-5.62972 377.145L140.857 334.949ZM97.731 334.949L-17.0195 356.045V341.515L97.731 334.949Z" fill="#DDDDF8"/>
</g>
<mask id="mask2_2016_774" style="mask-type:luminance" maskUnits="userSpaceOnUse" x="0" y="336" width="466" height="136">
<path d="M233 471.976C361.682 471.976 466 441.593 466 404.112C466 366.632 361.682 336.249 233 336.249C104.318 336.249 0 366.632 0 404.112C0 441.593 104.318 471.976 233 471.976Z" fill="white"/>
</mask>
<g mask="url(#mask2_2016_774)">
<path fillRule="evenodd" clip-rule="evenodd" d="M229.018 351.824C310.179 351.824 387.405 371.315 446.655 402.835C505.777 434.285 547.014 477.71 556.247 525.719C560.759 549.18 555.876 571.552 543.164 591.958C529.918 613.222 508.187 632.346 479.735 648.368C423.759 679.888 341.801 699.37 247.137 699.37C152.465 699.37 68.4748 679.884 9.21904 648.36C-20.9117 632.333 -44.6428 613.195 -60.1043 591.921C-74.9425 571.505 -82.1577 549.128 -80.084 525.655C-75.8396 477.665 -39.1246 434.263 16.7022 402.827C72.6708 371.311 147.866 351.824 229.018 351.824Z" stroke="white" stroke-opacity="0.48" strokeWidth="0.663"/>
</g>
<path fillRule="evenodd" clip-rule="evenodd" d="M310.879 339.799C308.898 346.831 308.403 352.86 309.393 357.883C310.879 365.416 305.31 366.603 309.888 375.59C314.467 384.577 363.22 384.893 372.183 389.584C381.148 394.274 419.624 401.066 422.171 400.306C423.868 399.802 431.369 392.971 444.669 379.817C442.003 370.153 440.669 364.082 440.669 361.602C440.669 357.883 444.26 345.8 437.464 345.8C432.932 345.8 398.821 339.735 335.13 327.604C329.078 332.626 324.729 335.135 322.082 335.135C319.434 335.135 315.7 336.69 310.879 339.797V339.799Z" fill="#D8D8D8" stroke="#979797" strokeWidth="0.611"/>
<path fillRule="evenodd" clip-rule="evenodd" d="M310.879 339.799C308.898 346.831 308.403 352.86 309.393 357.883C310.879 365.416 305.31 366.603 309.888 375.59C314.467 384.577 363.22 384.893 372.183 389.584C381.148 394.274 419.624 401.066 422.171 400.306C423.868 399.802 431.369 392.971 444.669 379.817C442.003 370.153 440.669 364.082 440.669 361.602C440.669 357.883 444.26 345.8 437.464 345.8C432.932 345.8 398.821 339.735 335.13 327.604C329.078 332.626 324.729 335.135 322.082 335.135C319.434 335.135 315.7 336.69 310.879 339.797V339.799Z" fill="#FF5B5B" stroke="white" strokeWidth="0.611"/>
<path fillRule="evenodd" clip-rule="evenodd" d="M310.879 339.799C308.898 346.831 308.403 352.86 309.393 357.884C310.879 365.416 305.31 366.603 309.888 375.59C314.467 384.577 363.22 384.893 372.183 389.584C381.148 394.274 419.624 401.066 422.171 400.306C423.868 399.802 431.369 392.971 444.669 379.817C442.003 370.153 440.669 364.082 440.669 361.603C440.669 357.884 444.26 345.8 437.464 345.8C435.852 345.8 427.988 360.216 417.834 359.906C373.717 358.556 338.064 351.853 310.879 339.799Z" fill="#FF5B5B" stroke="white" strokeWidth="0.611"/>
<path fillRule="evenodd" clip-rule="evenodd" d="M422.17 400.306C423.867 399.802 431.367 392.971 444.668 379.817C442.002 370.153 440.668 364.082 440.668 361.602C440.668 357.883 444.258 345.8 437.462 345.8C435.851 345.8 427.987 360.216 417.832 359.906C426.399 376.412 419.622 401.066 422.17 400.306Z" fill="#FF5B5B" stroke="white" strokeWidth="0.611"/>
<path fillRule="evenodd" clip-rule="evenodd" d="M385.34 362.57L417.799 366.312C419.274 370.81 419.67 373.67 418.985 374.89C418.302 376.11 407.087 374.669 385.34 370.57V362.57Z" fill="#EEAE4A"/>
<path fillRule="evenodd" clip-rule="evenodd" d="M390.836 375.604L418.046 378.737C419.283 382.502 419.615 384.897 419.041 385.917C418.468 386.939 409.066 385.733 390.836 382.301V375.604Z" fill="#E0E0E6"/>
<path fillRule="evenodd" clip-rule="evenodd" d="M337.855 328.783C330.644 335.376 325.838 338.672 323.439 338.672C319.837 338.672 368.349 354.366 424.543 352.204L434.166 346.414L337.855 328.783Z" fill="#F93A3A" stroke="white" strokeWidth="0.611"/>
<path fillRule="evenodd" clip-rule="evenodd" d="M309.25 352.247C310.459 350.22 359.525 361.368 364.009 363.985C370.94 368.032 379.567 378.539 389.887 395.505L363.009 368.939L309.252 356.631C309.846 354.855 308.04 354.271 309.25 352.247Z" fill="#DEDEE4"/>
<path d="M342.312 351.017C353.724 331.418 359.995 319.032 361.127 313.859C362.822 306.099 375.598 298.047 384.155 318.677C389.86 332.432 391.375 345.575 388.701 358.102" stroke="#0C264F" strokeWidth="2.444"/>
<path d="M342.312 351.017C353.724 331.418 359.995 319.032 361.127 313.859C362.822 306.099 375.598 298.047 384.155 318.677C389.86 332.432 391.375 345.575 388.701 358.102" stroke="#0C264F" strokeWidth="2.444"/>
<path d="M358.684 335.639C359.181 326.294 359.994 319.032 361.124 313.859C362.821 306.099 375.597 298.047 384.152 318.677C389.859 332.432 396.832 340.448 405.072 342.724" stroke="#0C264F" strokeWidth="2.444"/>
<path fillRule="evenodd" clip-rule="evenodd" d="M263.75 89.7108L261.185 97.7944H262.467L258.477 105.151L261.113 107.253L258.477 112.781L261.113 115.476C259.579 120.288 260.032 123.354 262.469 124.674C264.905 125.993 271.752 122.929 283.011 115.478L291.322 112.783V103.549C293.263 97.1119 291.776 95.1923 286.862 97.7944C284.085 99.2641 279.918 92.4932 275.311 90.7365C267.604 87.7971 263.75 87.4539 263.75 89.7108Z" fill="#FAC59E"/>
<path fillRule="evenodd" clip-rule="evenodd" d="M261.116 115.477C259.582 120.288 260.032 123.354 262.469 124.674C264.688 125.876 270.574 123.437 280.121 117.354C281.464 107.508 282.082 105.151 286.862 97.7941C287.985 96.0684 279.402 101.963 261.116 115.477Z" fill="black"/>
<path fillRule="evenodd" clip-rule="evenodd" d="M266.701 91.1786C264.095 92.8035 262.257 95.0081 261.185 97.7944C247.055 88.3826 244.686 83.6787 254.078 83.6787C263.468 83.6787 273.759 88.3826 284.949 97.7944C275.388 91.7603 269.305 89.5538 266.701 91.1786Z" fill="#FF5B5B"/>
<path fillRule="evenodd" clip-rule="evenodd" d="M266.02 86.0364C275.743 77.9935 284.452 77.2063 292.143 83.6766C299.836 90.1489 301.109 98.4632 295.968 108.623L280.155 94.3856L266.02 86.0364Z" fill="#FF3131"/>
<path fillRule="evenodd" clip-rule="evenodd" d="M283.112 102.88C284.495 99.59 286.009 98.4944 287.656 99.59C290.129 101.236 285.184 110.923 283.112 110.923C281.733 110.923 281.733 108.242 283.112 102.88Z" fill="#FAC59E"/>
<path fillRule="evenodd" clip-rule="evenodd" d="M283.759 105.052C283.64 108.222 284.036 109.015 284.947 107.429C286.312 105.052 288.428 99.4639 286.687 101.131C285.505 102.272 284.516 103.596 283.759 105.052Z" fill="url(#paint6_linear_2016_774)"/>
<path fillRule="evenodd" clip-rule="evenodd" d="M291.322 112.781H295.058L296.228 108.22L291.322 104.522V112.781ZM261.158 107.138L268.123 110.438L266.971 111.237L258.477 112.781L261.158 107.138Z" fill="black"/>
<path fillRule="evenodd" clip-rule="evenodd" d="M271.398 122.797L273.593 127.354C279.332 120.25 285.243 115.391 291.32 112.781C287.47 112.781 280.829 116.12 271.398 122.797Z" fill="#F1D1B9"/>
<path fillRule="evenodd" clip-rule="evenodd" d="M273.59 127.354L272.138 124.323L266.02 131.905L271.398 138.714L268.707 158.977L286.958 127.352L299.057 118.528L295.057 112.781C291.226 112.975 287.454 114.332 283.737 116.855C280.023 119.377 276.64 122.877 273.59 127.354Z" fill="#FF3131"/>
<path fillRule="evenodd" clip-rule="evenodd" d="M271.396 138.714C266.412 160.689 264.62 192.94 266.018 235.465C274.93 229.89 291.046 233.163 314.367 245.286C319.047 235.416 321.241 227.585 320.954 221.786C316.73 209.279 314.925 201.855 315.54 199.518C316.463 196.013 324.419 154.932 322.903 149.398C317.711 135.69 310.593 126.555 301.547 121.999C292.502 117.442 282.45 123.013 271.396 138.714Z" fill="#FF5B5B"/>
<path fillRule="evenodd" clip-rule="evenodd" d="M270.606 130.181L273.591 134.063C272.517 135.429 271.767 137.02 271.397 138.716C269.903 145.289 268.47 155.411 267.098 169.075L286.957 126.417L300.857 121.295L295.056 112.783C291.231 111.865 287.458 113.225 283.738 116.854C280.023 119.377 275.645 123.819 270.606 130.181Z" fill="#FF3131"/>
<path fillRule="evenodd" clip-rule="evenodd" d="M270.607 130.181L273.592 134.063C272.518 135.429 271.768 137.02 271.397 138.716C269.881 145.429 268.72 152.217 267.918 159.052L286.958 127.354C295.239 125.087 299.872 123.069 300.858 121.295C301.843 119.52 299.911 116.684 295.057 112.783C291.232 111.865 287.459 113.225 283.739 116.854C280.024 119.377 275.646 123.819 270.607 130.181ZM329.758 221.487L331.438 226.99C328.036 230.619 324.758 232.248 321.605 231.874C322.739 221.729 320.673 211.627 315.409 201.572C310.918 192.996 288.634 149.045 292.144 139.796C293.48 136.275 303.542 124.426 313.091 139.796C322.58 155.069 331.57 197.473 329.758 221.487Z" fill="#FFD3D3"/>
<path fillRule="evenodd" clip-rule="evenodd" d="M323.095 231.926C323.66 236.076 325.654 239.116 329.079 241.053C334.215 243.956 338.578 240.731 338.578 238.61C338.578 236.489 332.533 241.053 332.533 236.489C332.533 233.446 332.853 233.192 333.49 235.723C335.011 235.892 335.23 234.976 334.151 232.977C333.104 231.049 332.197 229.048 331.438 226.99L323.095 231.926ZM323.339 218.388C325.873 219.055 328.079 217.69 330.034 217.69C331.988 217.69 328.83 228.826 324.365 225.613C321.384 223.47 319.668 221.65 319.217 220.155L318.285 214.212C319.965 216.55 321.648 217.942 323.339 218.388Z" fill="#FAC59E"/>
<path fillRule="evenodd" clip-rule="evenodd" d="M294.326 382.301L315.409 379.082L304.59 289.37L283.738 323.936L294.326 382.301Z" fill="#FF3131"/>
<path fillRule="evenodd" clip-rule="evenodd" d="M265.932 234.334C278.557 229.297 294.815 232.874 314.703 245.066L286.65 363.117L280.429 383.191C263.861 385.977 257.42 383.995 261.109 377.248C267.639 296.247 269.719 252.184 267.348 245.066C266.365 239.682 265.894 236.104 265.932 234.334Z" fill="#FF3131"/>
<path fillRule="evenodd" clip-rule="evenodd" d="M282.907 375.908L281.127 383.709L281.074 391.439C273.839 390.233 266.76 390.489 259.84 392.211C253.034 393.928 245.942 394.191 239.027 392.985C244.26 386.551 250.666 382.262 258.25 380.116C259.813 379.674 260.026 376.304 261.613 375.98C264.007 375.491 266.712 377.618 270.805 377.706C273.535 377.762 277.567 377.163 282.907 375.908Z" fill="#E7F0FF"/>
<path fillRule="evenodd" clip-rule="evenodd" d="M238.609 392.984C248.764 395.559 255.886 395.808 259.983 393.729C262.766 392.315 269.633 393.413 275.128 393.215C276.856 393.153 278.837 392.562 281.076 391.439V388.24L240.25 391.439L238.609 392.984Z" fill="#A6C8FF"/>
<path d="M254.709 381.419C255.846 381.43 256.413 382.091 256.413 383.4L254.709 381.419ZM252.984 382.568C254.12 382.578 254.687 383.239 254.687 384.55L252.984 382.568ZM256.437 380.845C257.573 380.856 258.139 381.516 258.139 382.826L256.437 380.845Z" fill="#A6C8FF"/>
<path fillRule="evenodd" clip-rule="evenodd" d="M315.7 375.98L315.592 391.439C308.357 390.233 301.282 390.489 294.36 392.211C287.554 393.928 280.462 394.191 273.547 392.985C278.778 386.551 285.185 382.262 292.769 380.116C294.332 379.674 294.546 376.304 296.132 375.98C298.526 375.491 301.231 377.618 305.324 377.706C308.052 377.762 311.512 377.188 315.7 375.98Z" fill="#E7F0FF"/>
<path fillRule="evenodd" clip-rule="evenodd" d="M273.129 392.985C283.282 395.56 290.406 395.808 294.503 393.729C297.285 392.316 304.153 393.413 309.648 393.216C311.374 393.154 313.356 392.562 315.593 391.44V388.24L274.77 391.44L273.129 392.985Z" fill="#A6C8FF"/>
<path d="M289.228 381.419C290.364 381.43 290.933 382.091 290.933 383.4L289.228 381.419ZM287.504 382.568C288.64 382.578 289.207 383.239 289.207 384.55L287.504 382.568ZM290.954 380.845C292.09 380.856 292.659 381.516 292.659 382.826L290.954 380.845Z" fill="#A6C8FF"/>
<path fillRule="evenodd" clip-rule="evenodd" d="M187.549 376.842H207.115L210.641 240.281L185.788 241.807C182.666 269.185 181.336 293.432 181.796 314.555C182.234 335.427 184.156 356.242 187.549 376.842Z" fill="#FF3131"/>
<path fillRule="evenodd" clip-rule="evenodd" d="M157.922 249.34L160.508 335.192C158.988 348.636 159.023 363.086 160.615 378.541H179.41C188.449 338.792 192.256 313.101 190.835 301.467C189.414 289.833 193.171 269.947 202.108 241.807L157.922 249.34Z" fill="#FF3131"/>
<path fillRule="evenodd" clip-rule="evenodd" d="M186.973 375.119L187.079 390.576C194.316 389.372 201.393 389.628 208.314 391.35C215.12 393.066 222.212 393.329 229.126 392.121C223.895 385.688 217.488 381.399 209.904 379.252C208.341 378.81 208.127 375.44 206.541 375.119C202.471 374.289 195.949 374.289 186.973 375.119Z" fill="#E7F0FF"/>
<path fillRule="evenodd" clip-rule="evenodd" d="M229.544 392.122C219.391 394.697 212.267 394.945 208.17 392.866C205.388 391.455 198.52 392.55 193.025 392.354C191.297 392.29 189.317 391.699 187.078 390.576V387.377L227.904 390.576L229.544 392.122Z" fill="#A6C8FF"/>
<path d="M213.445 380.555C212.309 380.567 211.742 381.228 211.742 382.539L213.445 380.555ZM215.173 381.705C214.035 381.717 213.468 382.378 213.468 383.687L215.173 381.705ZM211.72 379.981C210.585 379.993 210.016 380.654 210.016 381.965L211.72 379.981Z" fill="#A6C8FF"/>
<path fillRule="evenodd" clip-rule="evenodd" d="M160.508 376.843L160.615 392.3C167.849 391.094 174.927 391.352 181.847 393.074C188.653 394.79 195.746 395.053 202.661 393.845C197.429 387.412 191.021 383.123 183.439 380.977C181.874 380.534 181.66 377.164 180.076 376.843C176.006 376.013 169.484 376.013 160.508 376.843Z" fill="#E7F0FF"/>
<path fillRule="evenodd" clip-rule="evenodd" d="M203.083 393.845C192.928 396.42 185.804 396.668 181.71 394.59C178.925 393.178 172.059 394.274 166.565 394.076C164.836 394.014 162.856 393.423 160.617 392.3V389.101L201.443 392.3L203.083 393.845Z" fill="#A6C8FF"/>
<path d="M186.98 382.281C185.846 382.291 185.277 382.952 185.277 384.263L186.98 382.281ZM188.708 383.429C187.572 383.44 187.003 384.102 187.003 385.41L188.708 383.429ZM185.256 381.705C184.12 381.717 183.551 382.378 183.551 383.687L185.256 381.705Z" fill="#A6C8FF"/>
<path fillRule="evenodd" clip-rule="evenodd" d="M202.51 114.793L199.236 125.122L170.055 107.157C185.054 107.712 193.467 108.708 195.296 110.151C197.127 111.592 199.531 113.139 202.51 114.793Z" fill="#FF3131"/>
<path fillRule="evenodd" clip-rule="evenodd" d="M166.057 112.028C155.211 118.917 149.79 130.402 149.79 146.484C149.79 170.608 146.221 224.915 157.923 249.34C192.497 249.243 210.071 246.734 210.639 241.807C211.498 234.42 210.678 142.66 199.17 125.985C191.497 114.869 180.46 110.217 166.057 112.028Z" fill="#FF5B5B"/>
<path fillRule="evenodd" clip-rule="evenodd" d="M176.652 102.378C184.31 104.032 191.151 109.488 197.176 118.747L203.696 136.065L205.523 143.622C190.355 122.559 177.2 112.028 166.059 112.028C168.748 108.522 165.163 99.8979 176.652 102.378Z" fill="#FF3131"/>
<path fillRule="evenodd" clip-rule="evenodd" d="M176.652 102.378C184.31 104.032 191.151 109.488 197.176 118.747L203.696 136.065C189.747 120.04 177.2 112.028 166.059 112.028C168.748 108.522 165.163 99.8979 176.652 102.378Z" fill="#FFD3D3"/>
<path fillRule="evenodd" clip-rule="evenodd" d="M172.768 238.018C173.012 244.106 173.703 248.426 174.839 250.978C176.544 254.806 177.059 256.39 179.971 257.757C182.884 259.124 186.66 257.379 186.66 255.504C186.66 254.78 183.86 248.508 185.282 245.964C186.039 249.371 188.518 250.269 188.516 247.95C188.516 244.578 188.66 236.762 186.101 234.815C181.418 231.253 176.971 232.319 172.766 238.018H172.768Z" fill="#FAC59E"/>
<path fillRule="evenodd" clip-rule="evenodd" d="M182.675 143.662C176.924 130.687 170.334 126.177 162.903 130.132C151.76 136.065 153.21 144.833 153.21 144.833C158.309 188.247 164.827 219.307 172.767 238.018L186.102 234.815C177.068 201.8 173.976 181.742 176.831 174.637C179.685 167.533 181.632 157.208 182.675 143.662Z" fill="#FF5B5B"/>
<path fillRule="evenodd" clip-rule="evenodd" d="M174.088 101.938C171.651 94.5501 171.348 88.4307 173.175 83.5755C175.913 76.2908 200.873 68.1627 204.471 80.9696C206.869 89.5068 204.665 100.061 197.861 112.627C197.188 115.726 195.337 116.15 192.312 113.905C189.285 111.658 183.21 107.669 174.088 101.938Z" fill="#FAC59E"/>
<path fillRule="evenodd" clip-rule="evenodd" d="M174.101 81.9897C178.775 83.8104 178.46 85.8211 181.798 97.7012C186.501 101.211 191.223 105.961 200.865 104.852C201.554 105.581 200.554 108.172 197.863 112.627C197.189 115.726 195.339 116.15 192.314 113.905C189.829 112.061 185.293 109.042 178.703 104.85C177.979 104.393 178.144 97.9785 177.118 92.4214C176.103 86.9108 173.882 82.2282 174.101 81.9897Z" fill="black"/>
<path fillRule="evenodd" clip-rule="evenodd" d="M177.008 96.9291C177.008 96.9291 175.863 98.1041 175.268 97.5534C172.762 95.2344 166.911 87.7035 172.001 85.5803C178.297 82.9511 177.008 96.9291 177.008 96.9291Z" fill="#FAC59E"/>
<path fillRule="evenodd" clip-rule="evenodd" d="M175.223 92.9658C175.223 92.9658 174.67 93.5359 174.38 93.2683C173.167 92.1456 170.338 88.5023 172.8 87.4747C175.848 86.2008 175.223 92.9658 175.223 92.9658Z" fill="url(#paint7_linear_2016_774)"/>
<path fillRule="evenodd" clip-rule="evenodd" d="M187.58 101.937C189.852 98.6547 193.106 97.5611 197.341 98.6547C201.576 99.7483 202.991 101.757 201.583 104.679L201.075 105.914C200.24 102.88 198.58 101.202 196.096 100.886C193.611 100.57 191.537 101.489 189.869 103.648L187.58 101.937Z" fill="black"/>
<path fillRule="evenodd" clip-rule="evenodd" d="M172 85.5805C168.233 73.6364 171.194 66.3265 180.881 63.6469C190.57 60.9711 198.744 64.502 205.408 74.2433C192.535 74.7513 183.423 77.334 178.075 81.9895C172.712 85.7705 172 85.5805 172 85.5805Z" fill="#FF3131"/>
<path fillRule="evenodd" clip-rule="evenodd" d="M205.104 74.0107C211.246 74.0107 212.585 75.6104 209.123 78.8077C207.92 79.9188 205.85 80.9445 204.471 80.9697C203.349 78.1756 200.84 76.1223 196.941 74.8096L205.104 74.0107Z" fill="#FF5B5B"/>
<path fillRule="evenodd" clip-rule="evenodd" d="M192.949 98.0521C193.526 97.674 194.178 97.738 194.906 98.246C195.228 98.4089 195.692 98.4089 196.302 98.246C196.912 98.0832 197.531 98.1879 198.164 98.5582L195.902 85.9995C193.357 94.4146 192.372 98.4322 192.949 98.0521Z" fill="url(#paint8_linear_2016_774)"/>
<path d="M186.965 83.3644C190.027 82.8409 192.666 83.5059 194.858 85.3557L195.032 85.5069L194.652 85.9374C193.297 84.7411 190.734 83.8821 186.965 83.3644ZM203.655 83.4478C201.254 82.901 199.184 83.5951 197.465 85.5302L197.328 85.6911L197.627 86.141C198.689 84.8884 200.698 83.9887 203.655 83.4478Z" fill="#DAB295"/>
<path fillRule="evenodd" clip-rule="evenodd" d="M130.791 76.3688C132.581 80.5454 135.521 84.2217 139.612 87.4016L135.83 91.4152L142.23 110.551C133.745 114.964 126.904 113.506 121.704 106.18V106.882C121.819 119.296 120.594 122.625 118.029 116.87C116.602 113.669 113.73 112.251 110.864 110.549C109.338 109.647 106.837 108.424 103.359 106.884V91.4172C103.359 80.9274 128.11 70.1021 130.791 76.3688Z" fill="#FAC59E"/>
<path fillRule="evenodd" clip-rule="evenodd" d="M102.953 93.6331V100.98L106.817 101.666L105.722 83.5505L102.953 93.6331ZM115.36 87.5138C118.494 91.605 119.539 94.7849 118.498 97.0515C117.457 99.3201 115.522 101.977 112.689 105.03L121.704 114.351V106.18C126.82 113.961 133.663 115.417 142.229 110.551L138.396 98.8664C130.241 98.5717 124.364 95.5295 120.762 89.7358C117.162 83.9441 116.155 79.9324 117.739 77.6968L110.862 82.422L115.36 87.5138Z" fill="#070707"/>
<path fillRule="evenodd" clip-rule="evenodd" d="M128.685 74.895C137.636 72.9503 143.508 69.115 146.294 63.3873L124.198 62.92C112.397 58.3382 103.378 59.1487 97.1391 65.3495C90.9024 71.5503 92.8402 80.9776 102.95 93.6332C105.234 84.7411 107.871 81.2626 110.859 83.1958C113.849 85.1328 119.793 82.3639 128.685 74.895Z" fill="#FF3131"/>
<path fillRule="evenodd" clip-rule="evenodd" d="M115.355 91.9774C108.423 94.4263 105.21 91.8397 105.72 84.2176C106.501 79.1453 109.132 80.0488 113.613 86.9244C114.056 88.0199 114.637 89.7049 115.355 91.9774Z" fill="#FAC59E"/>
<path fillRule="evenodd" clip-rule="evenodd" d="M112.009 88.0877C108.824 89.2188 107.34 87.994 107.553 84.414C107.897 82.0335 109.111 82.4656 111.193 85.7084C111.4 86.2251 111.671 87.0177 112.009 88.0877Z" fill="url(#paint9_linear_2016_774)"/>
<path fillRule="evenodd" clip-rule="evenodd" d="M132.461 98.1064C132.48 95.1747 133.607 92.9449 135.83 91.417L137.061 94.9731C134.876 94.849 133.785 95.8921 133.785 98.1064C133.785 100.321 133.344 100.321 132.461 98.1064Z" fill="#070707"/>
<path fillRule="evenodd" clip-rule="evenodd" d="M99.8594 103.105L126.546 120.141L119.934 124.643L99.8594 108.666V103.105Z" fill="#FFD3D3"/>
<path fillRule="evenodd" clip-rule="evenodd" d="M87.8789 222.258L130.003 222.962C154.045 251.428 165.414 280.131 164.107 309.066C162.8 338.003 157.02 367.258 146.766 396.831H128.646L137.255 309.066L87.8789 222.258Z" fill="#FF3131"/>
<path fillRule="evenodd" clip-rule="evenodd" d="M87.8789 222.258L130.003 222.962C129.106 251.671 128.009 280.373 126.712 309.066C125.406 338.003 122.118 367.258 116.849 396.831H98.7289L99.859 309.066L87.8789 222.258Z" fill="#FF3131"/>
<path fillRule="evenodd" clip-rule="evenodd" d="M128.547 397.58L128.648 411.973C135.385 410.848 141.974 411.089 148.418 412.69C154.86 414.294 161.32 414.532 167.796 413.409C162.924 407.42 156.959 403.428 149.899 401.429C148.443 401.018 148.243 397.88 146.767 397.578C142.977 396.806 136.904 396.806 128.547 397.578V397.58Z" fill="#E7F0FF"/>
<path fillRule="evenodd" clip-rule="evenodd" d="M168.189 413.41C158.733 415.808 152.1 416.039 148.286 414.104C145.694 412.789 139.3 413.811 134.186 413.627C132.576 413.569 130.73 413.016 128.648 411.973V408.993L166.66 411.973L168.189 413.41Z" fill="#A6C8FF"/>
<path d="M153.2 402.641C152.14 402.652 151.612 403.269 151.612 404.488L153.2 402.641ZM154.806 403.713C153.747 403.723 153.219 404.337 153.219 405.559L154.806 403.713ZM151.59 402.107C150.534 402.117 150.004 402.734 150.004 403.953L151.59 402.107Z" fill="#A6C8FF"/>
<path fillRule="evenodd" clip-rule="evenodd" d="M98.6289 396.832L98.7279 411.225C105.466 410.102 112.056 410.342 118.498 411.944C124.942 413.546 131.4 413.786 137.876 412.663C133.006 406.674 127.041 402.68 119.979 400.681C118.523 400.27 118.325 397.132 116.848 396.832C113.061 396.06 106.986 396.06 98.6289 396.832Z" fill="#E7F0FF"/>
<path fillRule="evenodd" clip-rule="evenodd" d="M138.267 412.666C128.813 415.062 122.18 415.293 118.365 413.358C115.774 412.043 109.38 413.063 104.264 412.879C102.656 412.821 100.81 412.27 98.7266 411.225V408.247L136.739 411.225L138.267 412.664V412.666Z" fill="#A6C8FF"/>
<path d="M123.28 401.896C122.222 401.906 121.694 402.521 121.694 403.742L123.28 401.896ZM124.888 402.965C123.829 402.976 123.299 403.591 123.299 404.811L124.888 402.965ZM121.672 401.361C120.614 401.371 120.086 401.988 120.086 403.207L121.672 401.361Z" fill="#A6C8FF"/>
<path fillRule="evenodd" clip-rule="evenodd" d="M99.859 108.666C91.871 144.219 87.8789 170.416 87.8789 187.258V242.66C94.0903 243.523 101.381 243.523 109.75 242.66C118.12 241.797 128.947 241.004 142.228 240.281C136.112 170.05 128.679 131.503 119.934 124.641C111.189 117.781 104.498 112.457 99.859 108.664V108.666Z" fill="#FF5B5B"/>
<path fillRule="evenodd" clip-rule="evenodd" d="M99.8594 126.064C108.756 119.448 114.88 121.314 118.237 131.664C119.457 135.424 116.95 146.536 128.33 172.086C135.916 189.121 144.065 205.001 152.776 219.726L142.228 224.942C128.573 209.457 118.897 194.37 113.203 179.679C107.51 164.985 103.061 147.114 99.8594 126.064Z" fill="#FFD3D3"/>
<path fillRule="evenodd" clip-rule="evenodd" d="M142.227 224.94L154.343 231.565C163.614 233.64 166.53 233.058 163.096 229.811C159.659 226.563 157.381 224.94 156.261 224.94H163.096L152.776 219.728L142.227 224.94Z" fill="#FAC59E"/>
<path fillRule="evenodd" clip-rule="evenodd" d="M195.099 444.261L203.108 439.549C203.743 439.175 204.276 438.652 204.66 438.024C205.045 437.397 205.269 436.684 205.313 435.95C205.357 435.215 205.22 434.481 204.913 433.812C204.607 433.143 204.14 432.56 203.555 432.113L197.485 427.487L183.723 435.584L195.099 444.261Z" fill="#FF5B5B"/>
<path fillRule="evenodd" clip-rule="evenodd" d="M193.856 429.621L217.49 415.709C217.251 415.238 216.998 414.775 216.731 414.319C209.475 402.026 193.615 397.935 181.305 405.181C168.995 412.427 164.898 428.264 172.156 440.557C174.628 444.757 178.245 448.169 182.585 450.396C182.377 442.2 186.736 433.812 193.856 429.621Z" fill="#FF3131"/>
<path fillRule="evenodd" clip-rule="evenodd" d="M194.177 418.385C186.416 422.951 177.443 422.228 170.444 417.794C168.96 421.464 168.342 425.427 168.639 429.374C168.935 433.322 170.137 437.148 172.152 440.557C174.625 444.757 178.243 448.169 182.583 450.395C182.375 442.199 186.734 433.811 193.854 429.621L217.488 415.709C216.024 412.834 214.033 410.259 211.619 408.116L194.177 418.383V418.385Z" fill="#FF3131"/>
<path fillRule="evenodd" clip-rule="evenodd" d="M203.171 448.61L229.562 433.075L227.135 427.487L197.305 445.048L203.171 448.61ZM231.16 434.219L203.62 450.429C203.48 450.511 203.32 450.555 203.157 450.554C202.994 450.553 202.835 450.509 202.695 450.425L195.09 445.8C194.958 445.719 194.849 445.606 194.774 445.47C194.698 445.335 194.659 445.183 194.66 445.028C194.661 444.873 194.702 444.721 194.779 444.587C194.856 444.452 194.966 444.34 195.1 444.261L227.098 425.428C227.208 425.363 227.33 425.323 227.457 425.309C227.583 425.295 227.711 425.308 227.832 425.348C227.953 425.387 228.065 425.451 228.159 425.536C228.254 425.622 228.329 425.726 228.38 425.843L231.527 433.09C231.614 433.291 231.625 433.517 231.557 433.724C231.489 433.932 231.349 434.108 231.16 434.219Z" fill="#EEF2EF"/>
<path fillRule="evenodd" clip-rule="evenodd" d="M195.597 443.968L202.84 439.706C203.483 439.328 204.022 438.796 204.408 438.158C204.793 437.52 205.013 436.796 205.047 436.051C205.081 435.35 204.949 434.651 204.663 434.01C204.376 433.369 203.942 432.804 203.397 432.361L190.122 440.175L195.597 443.968ZM203.752 441.253L196.015 445.808C195.866 445.895 195.696 445.938 195.524 445.932C195.352 445.925 195.185 445.869 195.044 445.771L187.943 440.852C187.819 440.766 187.718 440.651 187.65 440.516C187.583 440.381 187.55 440.232 187.555 440.081C187.561 439.93 187.604 439.783 187.681 439.654C187.759 439.524 187.867 439.416 187.997 439.34L202.999 430.513C203.149 430.425 203.322 430.382 203.497 430.39C203.671 430.398 203.839 430.456 203.981 430.558L204.249 430.752C205.096 431.363 205.776 432.176 206.229 433.116C206.682 434.056 206.892 435.094 206.841 436.136C206.794 437.179 206.486 438.193 205.947 439.086C205.407 439.98 204.653 440.725 203.752 441.253ZM222.984 446.048L230.728 441.49L229.97 434.921L221.295 440.028L222.984 446.048ZM232.145 442.74L222.889 448.189C222.771 448.259 222.638 448.301 222.5 448.312C222.363 448.322 222.225 448.301 222.097 448.25C221.97 448.198 221.855 448.118 221.764 448.015C221.672 447.913 221.605 447.79 221.569 447.658L219.377 439.848C219.323 439.657 219.333 439.453 219.407 439.269C219.481 439.085 219.613 438.93 219.784 438.83L230.246 432.673C230.375 432.597 230.521 432.554 230.671 432.549C230.821 432.543 230.97 432.575 231.105 432.642C231.239 432.709 231.354 432.808 231.44 432.93C231.527 433.053 231.581 433.195 231.598 433.344L232.582 441.864C232.602 442.037 232.571 442.211 232.494 442.367C232.416 442.523 232.295 442.652 232.145 442.74Z" fill="#EEF2EF"/>
<path fillRule="evenodd" clip-rule="evenodd" d="M220.699 440.377L220.536 440.454C220.424 440.493 220.306 440.509 220.188 440.502C220.07 440.495 219.955 440.464 219.848 440.413C219.742 440.361 219.647 440.289 219.569 440.201C219.491 440.112 219.43 440.009 219.392 439.898L216.771 432.34C216.693 432.115 216.707 431.868 216.812 431.654C216.916 431.44 217.101 431.276 217.326 431.198C217.551 431.12 217.798 431.134 218.013 431.238C218.227 431.342 218.392 431.527 218.47 431.752L221.091 439.308C221.159 439.504 221.157 439.718 221.085 439.912C221.014 440.107 220.877 440.271 220.699 440.377ZM204.179 432.252C204.017 432.348 203.83 432.39 203.643 432.373C203.456 432.356 203.279 432.282 203.136 432.159L198.329 428.031L184.384 436.239L188.964 439.374C189.062 439.441 189.145 439.526 189.209 439.625C189.274 439.724 189.318 439.835 189.34 439.95C189.361 440.066 189.36 440.185 189.335 440.301C189.311 440.416 189.264 440.526 189.197 440.623C189.13 440.72 189.045 440.803 188.946 440.868C188.847 440.932 188.736 440.976 188.62 440.998C188.504 441.02 188.385 441.018 188.269 440.994C188.154 440.969 188.044 440.922 187.947 440.856L182.203 436.922C182.08 436.836 181.98 436.72 181.912 436.586C181.845 436.451 181.812 436.302 181.817 436.152C181.822 436.001 181.865 435.855 181.941 435.725C182.017 435.595 182.125 435.487 182.254 435.409L197.97 426.158C198.302 425.962 198.721 425.999 199.012 426.249L204.307 430.796C204.416 430.889 204.5 431.007 204.554 431.139C204.608 431.271 204.63 431.414 204.617 431.556C204.605 431.698 204.558 431.836 204.482 431.956C204.406 432.077 204.302 432.18 204.179 432.252Z" fill="#EEF2EF"/>
<path fillRule="evenodd" clip-rule="evenodd" d="M170.461 437.127C172.773 442.863 177.078 447.574 182.587 450.398C182.377 442.2 186.736 433.812 193.856 429.622L217.49 415.71C217.251 415.239 216.998 414.775 216.731 414.319C216.081 413.22 215.351 412.169 214.546 411.176L170.461 437.127Z" fill="#FF5B5B"/>
<path fillRule="evenodd" clip-rule="evenodd" d="M174.605 440.951L220.363 414.019L214.534 411.159L174.87 434.506L174.605 440.951Z" fill="#FF5B5B"/>
<path fillRule="evenodd" clip-rule="evenodd" d="M202.718 402.969C201.425 404.981 202.793 408.181 205.785 410.121C208.768 412.06 212.24 412.014 213.566 410.032C213.94 407.091 204.032 401.454 202.718 402.969Z" fill="#EEF2EF"/>
<path fillRule="evenodd" clip-rule="evenodd" d="M212.665 409.737C212.665 409.737 212.566 409.939 212.267 410.203C211.835 410.554 211.319 410.787 210.77 410.878C210.09 411.011 209.269 410.98 208.436 410.781C208.008 410.679 207.59 410.54 207.188 410.364C206.77 410.177 206.367 409.959 205.982 409.712C205.609 409.459 205.256 409.178 204.926 408.873C204.588 408.58 204.31 408.229 204.044 407.893C203.569 407.268 203.228 406.551 203.044 405.788C202.919 405.244 202.94 404.678 203.106 404.145C203.23 403.767 203.405 403.61 203.388 403.603L203.349 403.758C203.314 403.853 203.296 404 203.277 404.182C203.236 404.549 203.314 405.07 203.537 405.638C203.774 406.207 204.159 406.817 204.661 407.401C204.92 407.686 205.203 407.965 205.508 408.231C205.809 408.502 206.12 408.725 206.494 408.975C206.819 409.189 207.186 409.408 207.549 409.576C207.918 409.741 208.281 409.912 208.65 410.022C209.315 410.247 210.012 410.363 210.714 410.366C211.02 410.362 211.306 410.327 211.547 410.275C211.776 410.226 212.022 410.129 212.168 410.057C212.498 409.891 212.665 409.737 212.665 409.737ZM182.814 418.096L175.098 422.637C174.759 422.837 174.354 422.894 173.974 422.796C173.593 422.697 173.267 422.452 173.067 422.114L173.065 422.108C172.966 421.941 172.901 421.755 172.874 421.563C172.847 421.371 172.858 421.175 172.906 420.986C172.955 420.798 173.041 420.622 173.158 420.466C173.275 420.311 173.421 420.18 173.589 420.082L181.305 415.539C181.644 415.339 182.048 415.282 182.429 415.381C182.81 415.479 183.136 415.724 183.336 416.062L183.338 416.066C183.538 416.405 183.595 416.809 183.497 417.19C183.398 417.57 183.153 417.896 182.814 418.096ZM185.089 421.951L177.373 426.492C177.034 426.691 176.63 426.748 176.249 426.65C175.868 426.552 175.542 426.307 175.342 425.969L175.34 425.963C175.242 425.795 175.177 425.61 175.149 425.418C175.122 425.225 175.133 425.029 175.182 424.841C175.231 424.653 175.316 424.476 175.433 424.321C175.55 424.166 175.697 424.035 175.865 423.936L183.581 419.393C183.919 419.195 184.323 419.138 184.704 419.236C185.084 419.334 185.41 419.579 185.61 419.917L185.614 419.923C185.813 420.261 185.87 420.665 185.772 421.045C185.674 421.426 185.428 421.751 185.089 421.951Z" fill="#E7F0FF"/>
<path fillRule="evenodd" clip-rule="evenodd" d="M194.732 422.818L178.96 432.099L177.078 428.912L192.848 419.628L194.732 422.818Z" fill="#FF5B5B"/>
<path fillRule="evenodd" clip-rule="evenodd" d="M191.628 422.666L180.333 429.317L179.57 428.022L190.865 421.373L191.628 422.666Z" fill="#FFB7B7"/>
<path fillRule="evenodd" clip-rule="evenodd" d="M192.238 423.706L180.945 430.352L180.562 429.707L191.857 423.056L192.238 423.706Z" fill="#E7F0FF"/>
<path fillRule="evenodd" clip-rule="evenodd" d="M193.251 421.54C193.292 421.608 193.319 421.683 193.33 421.761C193.342 421.84 193.338 421.92 193.318 421.997C193.299 422.074 193.264 422.146 193.216 422.209C193.169 422.273 193.109 422.326 193.041 422.366C192.972 422.407 192.897 422.433 192.818 422.444C192.739 422.455 192.659 422.45 192.582 422.43C192.506 422.41 192.434 422.375 192.37 422.327C192.307 422.279 192.254 422.219 192.214 422.15C192.135 422.013 192.112 421.85 192.153 421.696C192.193 421.543 192.292 421.412 192.429 421.331C192.566 421.25 192.729 421.227 192.883 421.266C193.037 421.305 193.169 421.404 193.251 421.54ZM179.533 429.612C179.574 429.68 179.6 429.755 179.612 429.833C179.623 429.912 179.618 429.992 179.599 430.068C179.579 430.145 179.545 430.217 179.497 430.28C179.449 430.344 179.39 430.397 179.322 430.438C179.253 430.478 179.178 430.504 179.099 430.516C179.021 430.527 178.941 430.523 178.864 430.503C178.787 430.483 178.715 430.449 178.652 430.401C178.588 430.354 178.535 430.294 178.494 430.226C178.413 430.089 178.389 429.924 178.429 429.769C178.469 429.615 178.568 429.482 178.706 429.4C178.844 429.319 179.008 429.295 179.164 429.335C179.319 429.374 179.452 429.474 179.533 429.612Z" fill="#181F23"/>
<path fillRule="evenodd" clip-rule="evenodd" d="M265.006 433.295C265.006 433.718 265.025 434.135 265.068 434.548C265.099 434.829 265.138 435.106 265.184 435.38C265.309 436.135 265.509 436.876 265.781 437.592C265.862 437.821 265.953 438.042 266.05 438.265V438.269C267.022 440.474 268.616 442.35 270.637 443.667C272.658 444.983 275.019 445.684 277.432 445.684C279.845 445.684 282.205 444.983 284.226 443.667C286.247 442.35 287.841 440.474 288.813 438.269V438.265C288.91 438.042 288.999 437.821 289.083 437.592C289.351 436.875 289.55 436.135 289.677 435.38C289.725 435.106 289.764 434.829 289.795 434.546C289.834 434.135 289.857 433.718 289.857 433.297H265.004L265.006 433.295Z" fill="#C6412B"/>
<path fillRule="evenodd" clip-rule="evenodd" d="M289.859 433.276C289.859 433.703 289.839 434.129 289.797 434.548C289.681 435.588 289.442 436.61 289.084 437.592C289.001 437.821 288.909 438.042 288.812 438.265V438.269C287.84 440.474 286.247 442.349 284.226 443.665C282.205 444.982 279.845 445.682 277.432 445.682C275.02 445.682 272.659 444.982 270.639 443.665C268.618 442.349 267.024 440.474 266.052 438.269V438.265C265.954 438.044 265.864 437.82 265.78 437.592C265.512 436.876 265.314 436.135 265.188 435.38C265.139 435.104 265.1 434.825 265.07 434.546C264.923 433.065 265.038 431.57 265.409 430.129C265.573 429.498 265.787 428.882 266.05 428.285V428.281C267.022 426.075 268.615 424.199 270.637 422.882C272.658 421.565 275.019 420.864 277.432 420.864C279.846 420.864 282.207 421.565 284.228 422.882C286.249 424.199 287.843 426.075 288.814 428.281V428.285C289.222 429.207 289.513 430.176 289.678 431.171C289.727 431.442 289.766 431.721 289.797 432.002C289.838 432.421 289.859 432.846 289.859 433.276Z" fill="#DE4D2B"/>
<path fillRule="evenodd" clip-rule="evenodd" d="M289.857 433.276C289.857 433.703 289.838 434.129 289.795 434.548H265.068C264.983 433.702 264.983 432.849 265.068 432.002H289.795C289.836 432.421 289.857 432.846 289.857 433.276Z" fill="#F8F8F7"/>
<path fillRule="evenodd" clip-rule="evenodd" d="M289.456 430.129H289.291C289.154 430.13 289.022 430.185 288.925 430.283C288.827 430.38 288.772 430.511 288.771 430.649C288.771 430.787 288.826 430.919 288.924 431.016C289.021 431.114 289.153 431.169 289.291 431.17H289.678C289.62 430.82 289.546 430.473 289.456 430.129ZM287.573 430.129H286.542C286.404 430.13 286.273 430.185 286.175 430.283C286.078 430.38 286.023 430.511 286.022 430.649C286.022 430.787 286.077 430.919 286.174 431.016C286.272 431.114 286.404 431.169 286.542 431.17H287.573C287.711 431.17 287.844 431.116 287.942 431.018C288.039 430.92 288.094 430.788 288.094 430.65C288.094 430.512 288.039 430.379 287.942 430.282C287.844 430.184 287.711 430.129 287.573 430.129ZM284.824 430.129H283.791C283.653 430.13 283.521 430.185 283.424 430.283C283.326 430.38 283.271 430.511 283.27 430.649C283.271 430.787 283.326 430.919 283.423 431.016C283.521 431.114 283.653 431.169 283.791 431.17H284.824C284.962 431.17 285.094 431.116 285.192 431.018C285.29 430.92 285.345 430.788 285.345 430.65C285.345 430.512 285.29 430.379 285.192 430.282C285.094 430.184 284.962 430.129 284.824 430.129ZM282.072 430.129H281.041C280.903 430.13 280.771 430.185 280.673 430.282C280.575 430.379 280.52 430.511 280.519 430.649C280.519 430.787 280.575 430.919 280.672 431.017C280.77 431.115 280.903 431.17 281.041 431.17H282.07C282.209 431.17 282.341 431.116 282.439 431.018C282.537 430.92 282.592 430.788 282.592 430.65C282.592 430.512 282.537 430.379 282.439 430.282C282.341 430.184 282.21 430.129 282.072 430.129ZM279.325 430.129H278.29C278.152 430.13 278.02 430.185 277.923 430.283C277.826 430.38 277.771 430.511 277.769 430.649C277.77 430.787 277.825 430.919 277.922 431.016C278.02 431.114 278.152 431.169 278.29 431.17H279.325C279.463 431.17 279.596 431.115 279.694 431.017C279.791 430.919 279.847 430.787 279.847 430.649C279.846 430.511 279.791 430.379 279.693 430.282C279.595 430.185 279.463 430.13 279.325 430.129ZM276.573 430.129H275.539C275.401 430.13 275.269 430.185 275.172 430.283C275.074 430.38 275.019 430.511 275.018 430.649C275.019 430.787 275.074 430.919 275.171 431.016C275.268 431.114 275.401 431.169 275.539 431.17H276.573C276.712 431.17 276.844 431.115 276.942 431.017C277.04 430.919 277.095 430.787 277.096 430.649C277.095 430.511 277.039 430.379 276.942 430.282C276.844 430.185 276.711 430.13 276.573 430.129ZM273.824 430.129H272.793C272.655 430.129 272.522 430.184 272.424 430.282C272.327 430.379 272.272 430.512 272.272 430.65C272.272 430.788 272.327 430.92 272.424 431.018C272.522 431.116 272.655 431.17 272.793 431.17H273.822C273.961 431.17 274.094 431.116 274.192 431.018C274.29 430.92 274.346 430.787 274.346 430.649C274.345 430.511 274.29 430.379 274.191 430.281C274.093 430.184 273.962 430.129 273.824 430.129ZM271.073 430.129H270.042C269.909 430.137 269.784 430.196 269.693 430.292C269.602 430.389 269.551 430.517 269.551 430.65C269.551 430.783 269.602 430.91 269.693 431.007C269.784 431.104 269.909 431.162 270.042 431.17H271.073C271.211 431.17 271.344 431.115 271.441 431.017C271.539 430.919 271.594 430.787 271.595 430.649C271.594 430.511 271.539 430.379 271.441 430.282C271.343 430.185 271.211 430.13 271.073 430.129ZM268.323 430.129H267.29C267.152 430.129 267.019 430.184 266.922 430.282C266.824 430.379 266.769 430.512 266.769 430.65C266.769 430.788 266.824 430.92 266.922 431.018C267.019 431.116 267.152 431.17 267.29 431.17H268.323C268.456 431.162 268.581 431.104 268.672 431.007C268.763 430.91 268.814 430.783 268.814 430.65C268.814 430.517 268.763 430.389 268.672 430.292C268.581 430.196 268.456 430.137 268.323 430.129ZM265.572 430.129H265.409C265.319 430.473 265.245 430.82 265.188 431.17H265.572C265.705 431.162 265.829 431.104 265.921 431.007C266.012 430.91 266.062 430.783 266.062 430.65C266.062 430.517 266.012 430.389 265.921 430.292C265.829 430.196 265.705 430.137 265.572 430.129ZM288.814 428.285L288.771 428.481C288.771 428.694 288.901 428.877 289.082 428.956C289 428.73 288.91 428.506 288.814 428.285ZM287.573 427.961H286.542C286.409 427.97 286.285 428.028 286.193 428.125C286.102 428.221 286.051 428.349 286.051 428.482C286.051 428.615 286.102 428.743 286.193 428.839C286.285 428.936 286.409 428.995 286.542 429.003H287.573C287.711 429.003 287.844 428.948 287.942 428.85C288.039 428.753 288.094 428.62 288.094 428.482C288.094 428.344 288.039 428.212 287.942 428.114C287.844 428.016 287.711 427.961 287.573 427.961ZM284.824 427.961H283.791C283.658 427.97 283.533 428.028 283.442 428.125C283.351 428.221 283.3 428.349 283.3 428.482C283.3 428.615 283.351 428.743 283.442 428.839C283.533 428.936 283.658 428.995 283.791 429.003H284.824C284.962 429.003 285.094 428.948 285.192 428.85C285.29 428.753 285.345 428.62 285.345 428.482C285.345 428.344 285.29 428.212 285.192 428.114C285.094 428.016 284.962 427.961 284.824 427.961ZM282.072 427.961H281.041C280.908 427.97 280.784 428.028 280.693 428.125C280.601 428.221 280.551 428.349 280.551 428.482C280.551 428.615 280.601 428.743 280.693 428.839C280.784 428.936 280.908 428.995 281.041 429.003H282.07C282.209 429.003 282.341 428.948 282.439 428.85C282.537 428.753 282.592 428.62 282.592 428.482C282.592 428.344 282.537 428.212 282.439 428.114C282.341 428.016 282.21 427.961 282.072 427.961ZM279.325 427.961H278.29C278.157 427.97 278.032 428.028 277.941 428.125C277.85 428.221 277.799 428.349 277.799 428.482C277.799 428.615 277.85 428.743 277.941 428.839C278.032 428.936 278.157 428.995 278.29 429.003H279.325C279.458 428.995 279.582 428.936 279.673 428.839C279.764 428.743 279.815 428.615 279.815 428.482C279.815 428.349 279.764 428.221 279.673 428.125C279.582 428.028 279.458 427.97 279.325 427.961ZM276.573 427.961H275.539C275.406 427.97 275.281 428.028 275.19 428.125C275.099 428.221 275.048 428.349 275.048 428.482C275.048 428.615 275.099 428.743 275.19 428.839C275.281 428.936 275.406 428.995 275.539 429.003H276.573C276.706 428.995 276.831 428.936 276.922 428.839C277.013 428.743 277.064 428.615 277.064 428.482C277.064 428.349 277.013 428.221 276.922 428.125C276.831 428.028 276.706 427.97 276.573 427.961ZM273.824 427.961H272.793C272.655 427.961 272.523 428.016 272.425 428.114C272.327 428.211 272.273 428.343 272.273 428.481C272.273 428.619 272.327 428.751 272.425 428.849C272.523 428.946 272.655 429.001 272.793 429.001H273.822C273.952 428.989 274.074 428.93 274.162 428.834C274.25 428.737 274.299 428.612 274.299 428.481C274.299 428.351 274.25 428.225 274.162 428.128C274.074 428.032 273.954 427.973 273.824 427.961ZM271.073 427.961H270.042C269.904 427.961 269.771 428.016 269.674 428.114C269.576 428.211 269.521 428.343 269.521 428.481C269.521 428.619 269.576 428.751 269.674 428.849C269.771 428.946 269.904 429.001 270.042 429.001H271.073C271.203 428.989 271.324 428.93 271.413 428.834C271.501 428.737 271.55 428.612 271.55 428.481C271.55 428.351 271.501 428.225 271.413 428.128C271.324 428.032 271.203 427.973 271.073 427.961ZM268.323 427.961H267.29C267.152 427.961 267.02 428.016 266.922 428.114C266.825 428.211 266.77 428.343 266.77 428.481C266.77 428.619 266.825 428.751 266.922 428.849C267.02 428.946 267.152 429.001 267.29 429.001H268.323C268.454 428.989 268.575 428.93 268.663 428.834C268.752 428.737 268.801 428.612 268.801 428.481C268.801 428.351 268.752 428.225 268.663 428.128C268.575 428.032 268.454 427.973 268.323 427.961ZM266.052 428.285C265.954 428.506 265.863 428.727 265.78 428.956C265.872 428.916 265.951 428.849 266.007 428.765C266.062 428.681 266.092 428.582 266.092 428.481L266.052 428.285ZM289.293 435.38C289.155 435.38 289.023 435.435 288.925 435.533C288.827 435.63 288.772 435.762 288.771 435.9C288.772 436.037 288.827 436.169 288.925 436.266C289.022 436.363 289.154 436.418 289.291 436.419H289.456C289.546 436.08 289.618 435.733 289.678 435.38H289.291H289.293ZM287.573 435.38H286.542C286.404 435.381 286.273 435.436 286.175 435.533C286.078 435.63 286.023 435.762 286.022 435.9C286.023 436.037 286.078 436.169 286.175 436.266C286.273 436.363 286.404 436.418 286.542 436.419H287.573C287.703 436.408 287.825 436.348 287.913 436.252C288.001 436.156 288.05 436.03 288.05 435.9C288.05 435.769 288.001 435.643 287.913 435.547C287.825 435.451 287.703 435.391 287.573 435.38ZM284.824 435.38H283.791C283.653 435.381 283.521 435.436 283.424 435.533C283.326 435.63 283.271 435.762 283.27 435.9C283.271 436.037 283.326 436.169 283.424 436.266C283.521 436.363 283.653 436.418 283.791 436.419H284.824C284.954 436.408 285.075 436.348 285.164 436.252C285.252 436.156 285.301 436.03 285.301 435.9C285.301 435.769 285.252 435.643 285.164 435.547C285.075 435.451 284.954 435.391 284.824 435.38ZM282.072 435.38H281.041C280.903 435.38 280.771 435.435 280.673 435.533C280.575 435.63 280.52 435.762 280.519 435.9C280.52 436.037 280.575 436.169 280.673 436.267C280.771 436.364 280.903 436.419 281.041 436.419H282.07C282.201 436.408 282.322 436.348 282.41 436.252C282.499 436.156 282.548 436.03 282.548 435.9C282.548 435.769 282.499 435.643 282.41 435.547C282.322 435.451 282.202 435.391 282.072 435.38ZM279.325 435.38H278.29C278.152 435.381 278.02 435.436 277.923 435.533C277.826 435.63 277.771 435.762 277.769 435.9C277.771 436.037 277.826 436.169 277.923 436.266C278.02 436.363 278.152 436.418 278.29 436.419H279.325C279.463 436.419 279.595 436.364 279.693 436.267C279.791 436.169 279.846 436.037 279.847 435.9C279.846 435.762 279.791 435.63 279.693 435.533C279.595 435.435 279.463 435.38 279.325 435.38ZM276.573 435.38H275.539C275.401 435.381 275.269 435.436 275.172 435.533C275.074 435.63 275.019 435.762 275.018 435.9C275.019 436.037 275.074 436.169 275.172 436.266C275.269 436.363 275.401 436.418 275.539 436.419H276.573C276.711 436.419 276.844 436.364 276.942 436.267C277.039 436.169 277.095 436.037 277.096 435.9C277.095 435.762 277.039 435.63 276.942 435.533C276.844 435.435 276.711 435.38 276.573 435.38ZM273.824 435.38H272.793C272.655 435.38 272.523 435.435 272.425 435.532C272.327 435.63 272.273 435.762 272.273 435.9C272.273 436.037 272.327 436.17 272.425 436.267C272.523 436.364 272.655 436.419 272.793 436.419H273.822C273.96 436.419 274.093 436.365 274.191 436.267C274.29 436.17 274.345 436.038 274.346 435.9C274.345 435.761 274.29 435.629 274.191 435.532C274.093 435.435 273.962 435.38 273.824 435.38ZM271.073 435.38H270.042C269.904 435.38 269.771 435.435 269.674 435.532C269.576 435.63 269.521 435.762 269.521 435.9C269.521 436.037 269.576 436.17 269.674 436.267C269.771 436.364 269.904 436.419 270.042 436.419H271.073C271.211 436.419 271.343 436.364 271.441 436.267C271.539 436.169 271.594 436.037 271.595 435.9C271.594 435.762 271.539 435.63 271.441 435.533C271.343 435.435 271.211 435.38 271.073 435.38ZM268.323 435.38H267.29C267.152 435.38 267.02 435.435 266.922 435.532C266.825 435.63 266.77 435.762 266.77 435.9C266.77 436.037 266.825 436.17 266.922 436.267C267.02 436.364 267.152 436.419 267.29 436.419H268.323C268.456 436.411 268.581 436.353 268.672 436.256C268.763 436.159 268.814 436.031 268.814 435.899C268.814 435.766 268.763 435.638 268.672 435.541C268.581 435.444 268.456 435.388 268.323 435.38ZM265.572 435.38H265.188C265.246 435.733 265.32 436.08 265.409 436.419H265.572C265.705 436.411 265.829 436.353 265.921 436.256C266.012 436.159 266.062 436.031 266.062 435.899C266.062 435.766 266.012 435.638 265.921 435.541C265.829 435.444 265.705 435.388 265.572 435.38ZM288.771 438.067L288.814 438.265C288.911 438.042 289 437.821 289.084 437.592C288.991 437.633 288.913 437.699 288.858 437.784C288.802 437.868 288.773 437.967 288.773 438.067H288.771ZM287.573 437.548H286.542C286.404 437.549 286.273 437.604 286.175 437.701C286.078 437.798 286.023 437.93 286.022 438.067C286.023 438.205 286.078 438.336 286.175 438.434C286.273 438.531 286.404 438.586 286.542 438.587H287.573C287.711 438.587 287.843 438.532 287.941 438.435C288.039 438.337 288.093 438.205 288.093 438.067C288.093 437.93 288.039 437.797 287.941 437.7C287.843 437.602 287.711 437.548 287.573 437.548ZM284.824 437.548H283.791C283.653 437.549 283.521 437.604 283.424 437.701C283.326 437.798 283.271 437.93 283.27 438.067C283.271 438.205 283.326 438.336 283.424 438.434C283.521 438.531 283.653 438.586 283.791 438.587H284.824C284.962 438.587 285.094 438.532 285.192 438.435C285.289 438.337 285.344 438.205 285.344 438.067C285.344 437.93 285.289 437.797 285.192 437.7C285.094 437.602 284.962 437.548 284.824 437.548ZM282.072 437.548H281.041C280.903 437.548 280.771 437.603 280.673 437.7C280.575 437.798 280.52 437.929 280.519 438.067C280.52 438.205 280.575 438.337 280.673 438.434C280.771 438.532 280.903 438.586 281.041 438.587H282.07C282.208 438.587 282.341 438.532 282.438 438.435C282.536 438.337 282.591 438.205 282.591 438.067C282.591 437.93 282.536 437.797 282.438 437.7C282.341 437.602 282.21 437.548 282.072 437.548ZM279.325 437.548H278.29C278.152 437.549 278.02 437.604 277.923 437.701C277.826 437.798 277.771 437.93 277.769 438.067C277.771 438.205 277.826 438.336 277.923 438.434C278.02 438.531 278.152 438.586 278.29 438.587H279.325C279.463 438.586 279.595 438.532 279.693 438.434C279.791 438.337 279.846 438.205 279.847 438.067C279.846 437.929 279.791 437.798 279.693 437.7C279.595 437.603 279.463 437.548 279.325 437.548ZM276.573 437.548H275.539C275.401 437.549 275.269 437.604 275.172 437.701C275.074 437.798 275.019 437.93 275.018 438.067C275.019 438.205 275.074 438.336 275.172 438.434C275.269 438.531 275.401 438.586 275.539 438.587H276.573C276.711 438.586 276.844 438.532 276.942 438.434C277.039 438.337 277.095 438.205 277.096 438.067C277.095 437.929 277.039 437.798 276.942 437.7C276.844 437.603 276.711 437.548 276.573 437.548ZM273.824 437.548H272.793C272.655 437.548 272.523 437.602 272.425 437.7C272.327 437.797 272.273 437.93 272.273 438.067C272.273 438.205 272.327 438.337 272.425 438.435C272.523 438.532 272.655 438.587 272.793 438.587H273.822C273.96 438.587 274.093 438.532 274.191 438.435C274.29 438.338 274.345 438.206 274.346 438.067C274.345 437.929 274.29 437.797 274.191 437.7C274.093 437.602 273.962 437.548 273.824 437.548ZM271.073 437.548H270.042C269.904 437.548 269.771 437.602 269.674 437.7C269.576 437.797 269.521 437.93 269.521 438.067C269.521 438.205 269.576 438.337 269.674 438.435C269.771 438.532 269.904 438.587 270.042 438.587H271.073C271.211 438.586 271.343 438.532 271.441 438.434C271.539 438.337 271.594 438.205 271.595 438.067C271.594 437.929 271.539 437.798 271.441 437.7C271.343 437.603 271.211 437.548 271.073 437.548ZM268.323 437.548H267.29C267.152 437.548 267.02 437.602 266.922 437.7C266.825 437.797 266.77 437.93 266.77 438.067C266.77 438.205 266.825 438.337 266.922 438.435C267.02 438.532 267.152 438.587 267.29 438.587H268.323C268.454 438.576 268.575 438.516 268.663 438.42C268.752 438.324 268.801 438.198 268.801 438.067C268.801 437.937 268.752 437.811 268.663 437.715C268.575 437.619 268.454 437.559 268.323 437.548ZM265.78 437.592C265.863 437.821 265.954 438.042 266.052 438.265L266.092 438.067C266.092 437.967 266.063 437.868 266.008 437.784C265.952 437.699 265.872 437.633 265.78 437.592Z" fill="#EEF2EF"/>
<path fillRule="evenodd" clip-rule="evenodd" d="M287.137 432.002H267.724C267.688 431.726 267.664 431.448 267.652 431.169H268.322C268.452 431.158 268.574 431.098 268.662 431.002C268.751 430.905 268.8 430.78 268.8 430.649C268.8 430.519 268.751 430.393 268.662 430.297C268.574 430.2 268.452 430.141 268.322 430.129H267.662C267.684 429.751 267.728 429.374 267.794 429.001H268.322C268.452 428.99 268.574 428.93 268.662 428.834C268.751 428.738 268.8 428.612 268.8 428.481C268.8 428.351 268.751 428.225 268.662 428.129C268.574 428.033 268.452 427.973 268.322 427.962H268.039C268.638 425.938 269.876 424.163 271.569 422.9C273.261 421.637 275.318 420.955 277.431 420.955C279.543 420.955 281.6 421.637 283.292 422.9C284.985 424.163 286.223 425.938 286.822 427.962H286.541C286.408 427.97 286.283 428.028 286.192 428.125C286.101 428.222 286.05 428.349 286.05 428.482C286.05 428.615 286.101 428.743 286.192 428.84C286.283 428.936 286.408 428.995 286.541 429.003H287.067C287.134 429.375 287.179 429.75 287.203 430.128H286.541C286.403 430.129 286.27 430.184 286.173 430.282C286.075 430.38 286.02 430.513 286.02 430.651C286.022 430.789 286.077 430.92 286.174 431.017C286.271 431.115 286.403 431.17 286.541 431.171H287.211C287.198 431.449 287.173 431.726 287.137 432.002ZM283.79 430.129C283.652 430.13 283.52 430.186 283.423 430.283C283.325 430.38 283.27 430.512 283.269 430.649C283.27 430.787 283.325 430.919 283.422 431.017C283.519 431.114 283.652 431.17 283.79 431.171H284.823C284.961 431.171 285.093 431.116 285.191 431.018C285.289 430.921 285.344 430.788 285.344 430.65C285.344 430.512 285.289 430.38 285.191 430.282C285.093 430.184 284.961 430.129 284.823 430.129H283.79ZM281.04 430.129C280.902 430.13 280.77 430.185 280.672 430.282C280.574 430.379 280.519 430.511 280.518 430.649C280.518 430.787 280.574 430.92 280.671 431.017C280.769 431.115 280.902 431.17 281.04 431.171H282.069C282.207 431.171 282.34 431.116 282.438 431.018C282.536 430.921 282.591 430.788 282.591 430.65C282.591 430.512 282.536 430.38 282.438 430.282C282.34 430.184 282.207 430.129 282.069 430.129H281.04ZM278.289 430.129C278.151 430.13 278.019 430.186 277.922 430.283C277.825 430.38 277.769 430.512 277.768 430.649C277.769 430.787 277.824 430.919 277.921 431.017C278.019 431.114 278.151 431.17 278.289 431.171H279.324C279.462 431.17 279.595 431.115 279.692 431.017C279.79 430.92 279.845 430.787 279.846 430.649C279.845 430.511 279.79 430.379 279.692 430.282C279.594 430.185 279.462 430.13 279.324 430.129H278.289ZM275.537 430.129C275.4 430.13 275.268 430.186 275.171 430.283C275.073 430.38 275.018 430.512 275.017 430.649C275.018 430.787 275.073 430.919 275.17 431.017C275.267 431.114 275.399 431.17 275.537 431.171H276.572C276.711 431.17 276.843 431.115 276.941 431.017C277.039 430.92 277.094 430.787 277.095 430.649C277.094 430.511 277.038 430.379 276.94 430.282C276.843 430.185 276.71 430.13 276.572 430.129H275.537ZM272.792 430.129C272.654 430.129 272.521 430.184 272.423 430.282C272.326 430.38 272.271 430.512 272.271 430.65C272.271 430.788 272.326 430.921 272.423 431.018C272.521 431.116 272.654 431.171 272.792 431.171H273.821C273.96 431.171 274.093 431.116 274.191 431.018C274.289 430.92 274.345 430.788 274.345 430.649C274.344 430.511 274.289 430.379 274.19 430.281C274.092 430.184 273.959 430.129 273.821 430.129H272.792ZM270.041 430.129C269.908 430.138 269.783 430.196 269.692 430.293C269.601 430.389 269.55 430.517 269.55 430.65C269.55 430.783 269.601 430.911 269.692 431.007C269.783 431.104 269.908 431.163 270.041 431.171H271.072C271.21 431.17 271.343 431.115 271.44 431.017C271.538 430.92 271.593 430.787 271.594 430.649C271.593 430.511 271.537 430.379 271.44 430.282C271.342 430.185 271.21 430.13 271.072 430.129H270.041ZM283.79 427.962C283.657 427.97 283.532 428.028 283.441 428.125C283.35 428.222 283.299 428.349 283.299 428.482C283.299 428.615 283.35 428.743 283.441 428.84C283.532 428.936 283.657 428.995 283.79 429.003H284.823C284.961 429.003 285.093 428.948 285.191 428.85C285.289 428.753 285.344 428.62 285.344 428.482C285.344 428.344 285.289 428.212 285.191 428.114C285.093 428.017 284.961 427.962 284.823 427.962H283.79ZM281.04 427.962C280.907 427.97 280.783 428.028 280.692 428.125C280.6 428.222 280.55 428.349 280.55 428.482C280.55 428.615 280.6 428.743 280.692 428.84C280.783 428.936 280.907 428.995 281.04 429.003H282.069C282.207 429.003 282.34 428.948 282.438 428.85C282.536 428.753 282.591 428.62 282.591 428.482C282.591 428.344 282.536 428.212 282.438 428.114C282.34 428.017 282.207 427.962 282.069 427.962H281.04ZM278.289 427.962C278.156 427.97 278.031 428.028 277.94 428.125C277.849 428.222 277.798 428.349 277.798 428.482C277.798 428.615 277.849 428.743 277.94 428.84C278.031 428.936 278.156 428.995 278.289 429.003H279.324C279.456 428.995 279.581 428.936 279.672 428.84C279.763 428.743 279.814 428.615 279.814 428.482C279.814 428.349 279.763 428.222 279.672 428.125C279.581 428.028 279.456 427.97 279.324 427.962H278.289ZM275.537 427.962C275.405 427.97 275.28 428.028 275.189 428.125C275.098 428.222 275.047 428.349 275.047 428.482C275.047 428.615 275.098 428.743 275.189 428.84C275.28 428.936 275.405 428.995 275.537 429.003H276.572C276.705 428.995 276.83 428.936 276.921 428.84C277.012 428.743 277.063 428.615 277.063 428.482C277.063 428.349 277.012 428.222 276.921 428.125C276.83 428.028 276.705 427.97 276.572 427.962H275.537ZM272.792 427.962C272.654 427.962 272.522 428.016 272.424 428.114C272.326 428.211 272.272 428.344 272.272 428.481C272.272 428.619 272.326 428.751 272.424 428.849C272.522 428.946 272.654 429.001 272.792 429.001H273.821C273.951 428.99 274.073 428.93 274.161 428.834C274.249 428.738 274.298 428.612 274.298 428.481C274.298 428.351 274.249 428.225 274.161 428.129C274.073 428.033 273.951 427.973 273.821 427.962H272.792ZM270.041 427.962C269.903 427.962 269.77 428.016 269.673 428.114C269.575 428.211 269.52 428.344 269.52 428.481C269.52 428.619 269.575 428.751 269.673 428.849C269.77 428.946 269.903 429.001 270.041 429.001H271.072C271.202 428.99 271.323 428.93 271.412 428.834C271.5 428.738 271.549 428.612 271.549 428.481C271.549 428.351 271.5 428.225 271.412 428.129C271.323 428.033 271.202 427.973 271.072 427.962H270.041Z" fill="#E46C34"/>
<path fillRule="evenodd" clip-rule="evenodd" d="M277.429 440.503C275.254 440.506 273.141 439.782 271.426 438.448C271.5 438.376 271.551 438.284 271.573 438.183C271.595 438.082 271.587 437.976 271.549 437.88C271.511 437.784 271.446 437.701 271.361 437.642C271.276 437.583 271.176 437.55 271.072 437.548H270.418C269.571 436.68 268.893 435.663 268.418 434.548H286.442C285.967 435.663 285.289 436.68 284.443 437.548H283.788C283.684 437.548 283.582 437.579 283.495 437.638C283.409 437.697 283.342 437.78 283.304 437.877C283.265 437.974 283.257 438.08 283.28 438.182C283.303 438.284 283.356 438.376 283.433 438.448C281.717 439.782 279.604 440.506 277.429 440.503ZM281.039 437.548C280.901 437.548 280.768 437.603 280.671 437.701C280.573 437.798 280.517 437.93 280.516 438.068C280.517 438.205 280.573 438.337 280.671 438.435C280.768 438.532 280.901 438.587 281.039 438.587H282.068C282.206 438.587 282.338 438.532 282.436 438.435C282.533 438.338 282.588 438.205 282.588 438.068C282.588 437.93 282.533 437.798 282.436 437.7C282.338 437.603 282.206 437.548 282.068 437.548H281.039ZM278.287 437.548C278.15 437.549 278.018 437.604 277.921 437.701C277.823 437.798 277.768 437.93 277.767 438.068C277.768 438.205 277.823 438.337 277.921 438.434C278.018 438.531 278.15 438.586 278.287 438.587H279.322C279.46 438.587 279.593 438.532 279.69 438.435C279.788 438.337 279.844 438.205 279.845 438.068C279.844 437.93 279.788 437.798 279.69 437.701C279.593 437.603 279.46 437.548 279.322 437.548H278.287ZM275.536 437.548C275.398 437.549 275.267 437.604 275.169 437.701C275.072 437.798 275.017 437.93 275.016 438.068C275.017 438.205 275.072 438.337 275.169 438.434C275.267 438.531 275.398 438.586 275.536 438.587H276.571C276.709 438.587 276.841 438.532 276.939 438.435C277.037 438.337 277.092 438.205 277.093 438.068C277.092 437.93 277.037 437.798 276.939 437.701C276.841 437.603 276.709 437.548 276.571 437.548H275.536ZM272.791 437.548C272.653 437.548 272.52 437.603 272.423 437.7C272.325 437.798 272.27 437.93 272.27 438.068C272.27 438.205 272.325 438.338 272.423 438.435C272.52 438.532 272.653 438.587 272.791 438.587H273.82C273.958 438.587 274.091 438.533 274.189 438.435C274.287 438.338 274.343 438.206 274.344 438.068C274.343 437.929 274.287 437.797 274.189 437.7C274.091 437.603 273.958 437.548 273.82 437.548H272.791ZM283.788 435.38C283.651 435.381 283.519 435.436 283.421 435.533C283.324 435.631 283.269 435.762 283.268 435.9C283.269 436.037 283.324 436.169 283.421 436.266C283.519 436.363 283.651 436.418 283.788 436.419H284.821C284.951 436.408 285.073 436.349 285.161 436.252C285.249 436.156 285.298 436.03 285.298 435.9C285.298 435.769 285.249 435.643 285.161 435.547C285.073 435.451 284.951 435.391 284.821 435.38H283.788ZM281.039 435.38C280.901 435.381 280.768 435.436 280.671 435.533C280.573 435.63 280.517 435.762 280.516 435.9C280.517 436.038 280.573 436.17 280.671 436.267C280.768 436.364 280.901 436.419 281.039 436.419H282.068C282.198 436.408 282.319 436.349 282.408 436.252C282.496 436.156 282.545 436.03 282.545 435.9C282.545 435.769 282.496 435.643 282.408 435.547C282.319 435.451 282.198 435.391 282.068 435.38H281.039ZM278.287 435.38C278.15 435.381 278.018 435.436 277.921 435.533C277.823 435.631 277.768 435.762 277.767 435.9C277.768 436.037 277.823 436.169 277.921 436.266C278.018 436.363 278.15 436.418 278.287 436.419H279.322C279.46 436.419 279.593 436.364 279.69 436.267C279.788 436.17 279.844 436.038 279.845 435.9C279.844 435.762 279.788 435.63 279.69 435.533C279.593 435.436 279.46 435.381 279.322 435.38H278.287ZM275.536 435.38C275.398 435.381 275.267 435.436 275.169 435.533C275.072 435.631 275.017 435.762 275.016 435.9C275.017 436.037 275.072 436.169 275.169 436.266C275.267 436.363 275.398 436.418 275.536 436.419H276.571C276.709 436.419 276.841 436.364 276.939 436.267C277.037 436.17 277.092 436.038 277.093 435.9C277.092 435.762 277.037 435.63 276.939 435.533C276.841 435.436 276.709 435.381 276.571 435.38H275.536ZM272.791 435.38C272.653 435.38 272.52 435.435 272.423 435.532C272.325 435.63 272.27 435.762 272.27 435.9C272.27 436.038 272.325 436.17 272.423 436.267C272.52 436.365 272.653 436.419 272.791 436.419H273.82C273.958 436.419 274.091 436.365 274.189 436.267C274.287 436.17 274.343 436.038 274.344 435.9C274.343 435.762 274.287 435.629 274.189 435.532C274.091 435.435 273.958 435.38 273.82 435.38H272.791ZM270.039 435.38C269.901 435.38 269.769 435.435 269.671 435.532C269.574 435.63 269.519 435.762 269.519 435.9C269.519 436.038 269.574 436.17 269.671 436.267C269.769 436.365 269.901 436.419 270.039 436.419H271.07C271.208 436.419 271.341 436.364 271.438 436.267C271.536 436.17 271.592 436.038 271.593 435.9C271.592 435.762 271.536 435.63 271.438 435.533C271.341 435.436 271.208 435.381 271.07 435.38H270.039Z" fill="#D95A2B"/>
<path fillRule="evenodd" clip-rule="evenodd" d="M286.442 434.548H268.416C268.07 433.735 267.837 432.879 267.723 432.002H287.135C287.019 432.894 286.782 433.748 286.442 434.548Z" fill="#D9D9D9"/>
<path fillRule="evenodd" clip-rule="evenodd" d="M287.212 431.17H286.543C286.405 431.169 286.273 431.114 286.175 431.016C286.078 430.919 286.023 430.787 286.022 430.649C286.023 430.511 286.078 430.38 286.176 430.282C286.273 430.185 286.405 430.13 286.543 430.129H287.203C287.224 430.476 287.227 430.823 287.212 431.17ZM284.824 431.17H283.791C283.653 431.169 283.521 431.114 283.424 431.016C283.326 430.919 283.271 430.787 283.271 430.649C283.272 430.511 283.327 430.38 283.424 430.282C283.522 430.185 283.654 430.13 283.791 430.129H284.824C284.963 430.129 285.095 430.184 285.193 430.282C285.291 430.379 285.346 430.512 285.346 430.65C285.346 430.788 285.291 430.92 285.193 431.018C285.095 431.116 284.963 431.17 284.824 431.17ZM282.073 431.17H281.042C280.904 431.17 280.771 431.115 280.673 431.017C280.575 430.919 280.52 430.787 280.52 430.649C280.521 430.511 280.576 430.379 280.674 430.282C280.772 430.185 280.904 430.13 281.042 430.129H282.071C282.209 430.129 282.342 430.184 282.44 430.282C282.537 430.379 282.592 430.512 282.592 430.65C282.592 430.788 282.537 430.92 282.44 431.018C282.342 431.116 282.211 431.17 282.073 431.17ZM279.325 431.17H278.291C278.152 431.169 278.02 431.114 277.923 431.016C277.826 430.919 277.771 430.787 277.77 430.649C277.771 430.511 277.826 430.38 277.924 430.282C278.021 430.185 278.153 430.13 278.291 430.129H279.325C279.463 430.13 279.596 430.185 279.694 430.282C279.791 430.379 279.847 430.511 279.848 430.649C279.847 430.787 279.792 430.919 279.694 431.017C279.596 431.115 279.464 431.17 279.325 431.17ZM276.574 431.17H275.539C275.401 431.169 275.269 431.114 275.172 431.016C275.074 430.919 275.019 430.787 275.019 430.649C275.02 430.511 275.075 430.38 275.172 430.282C275.27 430.185 275.402 430.13 275.539 430.129H276.574C276.712 430.13 276.844 430.185 276.942 430.282C277.04 430.379 277.095 430.511 277.096 430.649C277.096 430.787 277.041 430.919 276.943 431.017C276.845 431.115 276.712 431.17 276.574 431.17ZM273.825 431.17H272.794C272.655 431.17 272.523 431.116 272.425 431.018C272.327 430.92 272.272 430.788 272.272 430.65C272.272 430.512 272.327 430.379 272.425 430.282C272.523 430.184 272.655 430.129 272.794 430.129H273.823C273.961 430.129 274.094 430.184 274.192 430.281C274.29 430.378 274.346 430.511 274.347 430.649C274.347 430.787 274.291 430.92 274.193 431.018C274.095 431.116 273.963 431.17 273.825 431.17ZM271.073 431.17H270.042C269.904 431.17 269.771 431.116 269.674 431.018C269.576 430.92 269.521 430.788 269.521 430.65C269.521 430.512 269.576 430.379 269.674 430.282C269.771 430.184 269.904 430.129 270.042 430.129H271.073C271.211 430.13 271.344 430.185 271.441 430.282C271.539 430.379 271.595 430.511 271.596 430.649C271.595 430.787 271.54 430.919 271.442 431.017C271.344 431.115 271.212 431.17 271.073 431.17ZM268.324 431.17H267.654C267.639 430.823 267.642 430.476 267.662 430.129H268.322C268.455 430.137 268.579 430.196 268.671 430.292C268.762 430.389 268.812 430.517 268.812 430.65C268.812 430.783 268.762 430.91 268.671 431.007C268.579 431.104 268.455 431.162 268.322 431.17H268.324ZM287.069 429.001H286.543C286.412 428.989 286.291 428.93 286.203 428.834C286.114 428.737 286.065 428.612 286.065 428.481C286.065 428.35 286.114 428.225 286.203 428.128C286.291 428.032 286.412 427.973 286.543 427.961H286.824C286.923 428.301 287.007 428.648 287.069 429.001ZM284.824 429.001H283.791C283.661 428.989 283.54 428.93 283.451 428.834C283.363 428.737 283.314 428.612 283.314 428.481C283.314 428.35 283.363 428.225 283.451 428.128C283.54 428.032 283.661 427.973 283.791 427.961H284.824C284.962 427.961 285.095 428.016 285.192 428.114C285.29 428.211 285.345 428.343 285.345 428.481C285.345 428.619 285.29 428.751 285.192 428.848C285.095 428.946 284.962 429.001 284.824 429.001ZM282.073 429.001H281.042C280.912 428.989 280.79 428.93 280.702 428.834C280.614 428.737 280.565 428.612 280.565 428.481C280.565 428.35 280.614 428.225 280.702 428.128C280.79 428.032 280.912 427.973 281.042 427.961H282.071C282.209 427.961 282.341 428.016 282.439 428.114C282.536 428.211 282.591 428.343 282.591 428.481C282.591 428.619 282.536 428.751 282.439 428.848C282.341 428.946 282.211 429.001 282.073 429.001ZM279.325 429.001H278.291C278.16 428.989 278.039 428.93 277.951 428.834C277.862 428.737 277.813 428.612 277.813 428.481C277.813 428.35 277.862 428.225 277.951 428.128C278.039 428.032 278.16 427.973 278.291 427.961H279.325C279.458 427.969 279.583 428.028 279.674 428.125C279.765 428.221 279.816 428.349 279.816 428.482C279.816 428.615 279.765 428.743 279.674 428.839C279.583 428.936 279.458 428.993 279.325 429.001ZM276.574 429.001H275.539C275.409 428.989 275.288 428.93 275.199 428.834C275.111 428.737 275.062 428.612 275.062 428.481C275.062 428.35 275.111 428.225 275.199 428.128C275.288 428.032 275.409 427.973 275.539 427.961H276.574C276.707 427.969 276.832 428.028 276.923 428.125C277.014 428.221 277.065 428.349 277.065 428.482C277.065 428.615 277.014 428.743 276.923 428.839C276.832 428.936 276.707 428.993 276.574 429.001ZM273.825 429.001H272.794C272.656 429.001 272.523 428.946 272.426 428.848C272.328 428.751 272.273 428.619 272.273 428.481C272.273 428.343 272.328 428.211 272.426 428.114C272.523 428.016 272.656 427.961 272.794 427.961H273.823C273.956 427.969 274.08 428.028 274.171 428.125C274.262 428.221 274.313 428.349 274.313 428.482C274.313 428.615 274.262 428.743 274.171 428.839C274.08 428.936 273.956 428.995 273.823 429.003L273.825 429.001ZM271.073 429.001H270.042C269.904 429.001 269.771 428.946 269.674 428.848C269.576 428.751 269.521 428.618 269.521 428.48C269.521 428.342 269.576 428.21 269.674 428.112C269.771 428.014 269.904 427.959 270.042 427.959H271.073C271.206 427.968 271.331 428.026 271.422 428.123C271.513 428.219 271.564 428.347 271.564 428.48C271.564 428.613 271.513 428.741 271.422 428.837C271.331 428.934 271.206 428.993 271.073 429.001ZM268.324 429.001H267.796C267.858 428.648 267.941 428.303 268.04 427.961H268.324C268.454 427.973 268.575 428.032 268.664 428.128C268.752 428.225 268.801 428.35 268.801 428.481C268.801 428.612 268.752 428.737 268.664 428.834C268.575 428.93 268.454 428.989 268.324 429.001ZM284.824 436.419H283.791C283.654 436.418 283.522 436.363 283.424 436.266C283.327 436.169 283.272 436.037 283.271 435.9C283.272 435.762 283.327 435.63 283.424 435.533C283.522 435.436 283.654 435.381 283.791 435.38H284.824C284.962 435.38 285.095 435.435 285.192 435.532C285.29 435.63 285.345 435.762 285.345 435.9C285.345 436.037 285.29 436.17 285.192 436.267C285.095 436.364 284.962 436.419 284.824 436.419ZM282.073 436.419H281.042C280.904 436.419 280.772 436.364 280.674 436.267C280.576 436.169 280.521 436.037 280.52 435.9C280.521 435.762 280.576 435.63 280.674 435.533C280.772 435.435 280.904 435.38 281.042 435.38H282.071C282.209 435.38 282.341 435.435 282.439 435.532C282.536 435.63 282.591 435.762 282.591 435.9C282.591 436.037 282.536 436.17 282.439 436.267C282.341 436.364 282.211 436.419 282.073 436.419ZM279.325 436.419H278.291C278.153 436.418 278.021 436.363 277.924 436.266C277.826 436.169 277.771 436.037 277.77 435.9C277.771 435.762 277.826 435.63 277.924 435.533C278.021 435.436 278.153 435.381 278.291 435.38H279.325C279.463 435.38 279.596 435.435 279.694 435.533C279.791 435.63 279.847 435.762 279.848 435.9C279.847 436.037 279.791 436.169 279.694 436.267C279.596 436.364 279.463 436.419 279.325 436.419ZM276.574 436.419H275.539C275.402 436.418 275.27 436.363 275.172 436.266C275.075 436.169 275.02 436.037 275.019 435.9C275.02 435.762 275.075 435.63 275.172 435.533C275.27 435.436 275.402 435.381 275.539 435.38H276.574C276.712 435.38 276.844 435.435 276.942 435.533C277.04 435.63 277.095 435.762 277.096 435.9C277.095 436.037 277.04 436.169 276.942 436.267C276.844 436.364 276.712 436.419 276.574 436.419ZM273.825 436.419H272.794C272.663 436.408 272.542 436.348 272.454 436.252C272.365 436.156 272.316 436.03 272.316 435.9C272.316 435.769 272.365 435.643 272.454 435.547C272.542 435.451 272.663 435.391 272.794 435.38H273.823C273.961 435.38 274.094 435.435 274.192 435.532C274.29 435.629 274.346 435.761 274.347 435.9C274.346 436.038 274.29 436.17 274.192 436.267C274.094 436.365 273.963 436.419 273.825 436.419ZM271.073 436.419H270.042C269.912 436.408 269.791 436.348 269.702 436.252C269.614 436.156 269.565 436.03 269.565 435.9C269.565 435.769 269.614 435.643 269.702 435.547C269.791 435.451 269.912 435.391 270.042 435.38H271.073C271.211 435.38 271.344 435.435 271.441 435.533C271.539 435.63 271.595 435.762 271.596 435.9C271.595 436.037 271.539 436.169 271.441 436.267C271.344 436.364 271.211 436.419 271.073 436.419ZM282.071 438.589H281.042C280.904 438.588 280.771 438.533 280.673 438.436C280.575 438.338 280.52 438.205 280.52 438.067C280.521 437.929 280.576 437.798 280.674 437.7C280.772 437.603 280.904 437.548 281.042 437.548H282.071C282.209 437.548 282.341 437.602 282.439 437.7C282.536 437.797 282.591 437.929 282.591 438.067C282.591 438.205 282.536 438.337 282.439 438.435C282.341 438.532 282.209 438.589 282.071 438.589ZM279.325 438.589H278.291C278.152 438.588 278.02 438.533 277.923 438.435C277.826 438.337 277.771 438.205 277.77 438.067C277.771 437.93 277.826 437.798 277.924 437.701C278.021 437.604 278.153 437.549 278.291 437.548H279.325C279.463 437.548 279.596 437.603 279.694 437.7C279.791 437.798 279.847 437.929 279.848 438.067C279.847 438.205 279.791 438.337 279.694 438.434C279.596 438.532 279.463 438.588 279.325 438.589ZM276.574 438.589H275.539C275.401 438.588 275.269 438.533 275.172 438.435C275.074 438.337 275.019 438.205 275.019 438.067C275.02 437.93 275.075 437.798 275.172 437.701C275.27 437.604 275.402 437.549 275.539 437.548H276.574C276.712 437.548 276.844 437.603 276.942 437.7C277.04 437.798 277.095 437.929 277.096 438.067C277.095 438.205 277.04 438.337 276.942 438.434C276.844 438.532 276.712 438.588 276.574 438.589ZM273.825 438.589H272.794C272.655 438.589 272.523 438.534 272.425 438.436C272.327 438.339 272.272 438.206 272.272 438.068C272.272 437.93 272.327 437.798 272.425 437.7C272.523 437.603 272.655 437.548 272.794 437.548H273.823C273.961 437.548 274.094 437.602 274.192 437.7C274.29 437.797 274.346 437.929 274.347 438.067C274.346 438.205 274.29 438.338 274.192 438.435C274.094 438.532 273.961 438.587 273.823 438.587L273.825 438.589ZM271.429 438.447C271.072 438.171 270.734 437.87 270.419 437.548H271.073C271.177 437.549 271.278 437.582 271.363 437.641C271.448 437.7 271.514 437.783 271.552 437.879C271.59 437.975 271.598 438.081 271.577 438.182C271.555 438.283 271.503 438.375 271.429 438.447ZM283.438 438.447C283.362 438.376 283.308 438.284 283.285 438.182C283.262 438.081 283.27 437.975 283.308 437.878C283.346 437.781 283.413 437.697 283.499 437.638C283.585 437.58 283.687 437.548 283.791 437.548H284.446C284.13 437.87 283.795 438.171 283.438 438.447Z" fill="#F8F8F7"/>
<path d="M137.075 24V6.5H140.425L150.75 19.1H149.125V6.5H153.125V24H149.8L139.45 11.4H141.075V24H137.075ZM163.39 24.2C161.957 24.2 160.682 23.9 159.565 23.3C158.465 22.7 157.59 21.8833 156.94 20.85C156.307 19.8 155.99 18.6083 155.99 17.275C155.99 15.925 156.307 14.7333 156.94 13.7C157.59 12.65 158.465 11.8333 159.565 11.25C160.682 10.65 161.957 10.35 163.39 10.35C164.807 10.35 166.074 10.65 167.19 11.25C168.307 11.8333 169.182 12.6417 169.815 13.675C170.449 14.7083 170.765 15.9083 170.765 17.275C170.765 18.6083 170.449 19.8 169.815 20.85C169.182 21.8833 168.307 22.7 167.19 23.3C166.074 23.9 164.807 24.2 163.39 24.2ZM163.39 21C164.04 21 164.624 20.85 165.14 20.55C165.657 20.25 166.065 19.825 166.365 19.275C166.665 18.7083 166.815 18.0417 166.815 17.275C166.815 16.4917 166.665 15.825 166.365 15.275C166.065 14.725 165.657 14.3 165.14 14C164.624 13.7 164.04 13.55 163.39 13.55C162.74 13.55 162.157 13.7 161.64 14C161.124 14.3 160.707 14.725 160.39 15.275C160.09 15.825 159.94 16.4917 159.94 17.275C159.94 18.0417 160.09 18.7083 160.39 19.275C160.707 19.825 161.124 20.25 161.64 20.55C162.157 20.85 162.74 21 163.39 21ZM180.727 24V6.5H188.677C190.577 6.5 192.252 6.86667 193.702 7.6C195.152 8.31667 196.286 9.325 197.102 10.625C197.919 11.925 198.327 13.4667 198.327 15.25C198.327 17.0167 197.919 18.5583 197.102 19.875C196.286 21.175 195.152 22.1917 193.702 22.925C192.252 23.6417 190.577 24 188.677 24H180.727ZM184.777 20.675H188.477C189.644 20.675 190.652 20.4583 191.502 20.025C192.369 19.575 193.036 18.9417 193.502 18.125C193.986 17.3083 194.227 16.35 194.227 15.25C194.227 14.1333 193.986 13.175 193.502 12.375C193.036 11.5583 192.369 10.9333 191.502 10.5C190.652 10.05 189.644 9.825 188.477 9.825H184.777V20.675ZM209.357 24V21.375L209.107 20.8V16.1C209.107 15.2667 208.848 14.6167 208.332 14.15C207.832 13.6833 207.057 13.45 206.007 13.45C205.29 13.45 204.582 13.5667 203.882 13.8C203.198 14.0167 202.615 14.3167 202.132 14.7L200.732 11.975C201.465 11.4583 202.348 11.0583 203.382 10.775C204.415 10.4917 205.465 10.35 206.532 10.35C208.582 10.35 210.173 10.8333 211.307 11.8C212.44 12.7667 213.007 14.275 213.007 16.325V24H209.357ZM205.257 24.2C204.207 24.2 203.307 24.025 202.557 23.675C201.807 23.3083 201.232 22.8167 200.832 22.2C200.432 21.5833 200.232 20.8917 200.232 20.125C200.232 19.325 200.423 18.625 200.807 18.025C201.207 17.425 201.832 16.9583 202.682 16.625C203.532 16.275 204.64 16.1 206.007 16.1H209.582V18.375H206.432C205.515 18.375 204.882 18.525 204.532 18.825C204.198 19.125 204.032 19.5 204.032 19.95C204.032 20.45 204.223 20.85 204.607 21.15C205.007 21.4333 205.548 21.575 206.232 21.575C206.882 21.575 207.465 21.425 207.982 21.125C208.498 20.8083 208.873 20.35 209.107 19.75L209.707 21.55C209.423 22.4167 208.907 23.075 208.157 23.525C207.407 23.975 206.44 24.2 205.257 24.2ZM222.036 24.2C220.453 24.2 219.22 23.8 218.336 23C217.453 22.1833 217.011 20.975 217.011 19.375V7.575H220.911V19.325C220.911 19.8917 221.061 20.3333 221.361 20.65C221.661 20.95 222.07 21.1 222.586 21.1C223.203 21.1 223.728 20.9333 224.161 20.6L225.211 23.35C224.811 23.6333 224.328 23.85 223.761 24C223.211 24.1333 222.636 24.2 222.036 24.2ZM214.936 13.85V10.85H224.261V13.85H214.936ZM235.651 24V21.375L235.401 20.8V16.1C235.401 15.2667 235.142 14.6167 234.626 14.15C234.126 13.6833 233.351 13.45 232.301 13.45C231.584 13.45 230.876 13.5667 230.176 13.8C229.492 14.0167 228.909 14.3167 228.426 14.7L227.026 11.975C227.759 11.4583 228.642 11.0583 229.676 10.775C230.709 10.4917 231.759 10.35 232.826 10.35C234.876 10.35 236.467 10.8333 237.601 11.8C238.734 12.7667 239.301 14.275 239.301 16.325V24H235.651ZM231.551 24.2C230.501 24.2 229.601 24.025 228.851 23.675C228.101 23.3083 227.526 22.8167 227.126 22.2C226.726 21.5833 226.526 20.8917 226.526 20.125C226.526 19.325 226.717 18.625 227.101 18.025C227.501 17.425 228.126 16.9583 228.976 16.625C229.826 16.275 230.934 16.1 232.301 16.1H235.876V18.375H232.726C231.809 18.375 231.176 18.525 230.826 18.825C230.492 19.125 230.326 19.5 230.326 19.95C230.326 20.45 230.517 20.85 230.901 21.15C231.301 21.4333 231.842 21.575 232.526 21.575C233.176 21.575 233.759 21.425 234.276 21.125C234.792 20.8083 235.167 20.35 235.401 19.75L236.001 21.55C235.717 22.4167 235.201 23.075 234.451 23.525C233.701 23.975 232.734 24.2 231.551 24.2ZM253.935 14.375H262.335V17.625H253.935V14.375ZM254.235 24H250.185V6.5H263.41V9.75H254.235V24ZM271.935 24.2C270.502 24.2 269.227 23.9 268.11 23.3C267.01 22.7 266.135 21.8833 265.485 20.85C264.852 19.8 264.535 18.6083 264.535 17.275C264.535 15.925 264.852 14.7333 265.485 13.7C266.135 12.65 267.01 11.8333 268.11 11.25C269.227 10.65 270.502 10.35 271.935 10.35C273.352 10.35 274.619 10.65 275.735 11.25C276.852 11.8333 277.727 12.6417 278.36 13.675C278.994 14.7083 279.31 15.9083 279.31 17.275C279.31 18.6083 278.994 19.8 278.36 20.85C277.727 21.8833 276.852 22.7 275.735 23.3C274.619 23.9 273.352 24.2 271.935 24.2ZM271.935 21C272.585 21 273.169 20.85 273.685 20.55C274.202 20.25 274.61 19.825 274.91 19.275C275.21 18.7083 275.36 18.0417 275.36 17.275C275.36 16.4917 275.21 15.825 274.91 15.275C274.61 14.725 274.202 14.3 273.685 14C273.169 13.7 272.585 13.55 271.935 13.55C271.285 13.55 270.702 13.7 270.185 14C269.669 14.3 269.252 14.725 268.935 15.275C268.635 15.825 268.485 16.4917 268.485 17.275C268.485 18.0417 268.635 18.7083 268.935 19.275C269.252 19.825 269.669 20.25 270.185 20.55C270.702 20.85 271.285 21 271.935 21ZM287.592 24.2C286.476 24.2 285.476 23.9833 284.592 23.55C283.726 23.1167 283.051 22.4583 282.567 21.575C282.084 20.675 281.842 19.5333 281.842 18.15V10.55H285.742V17.575C285.742 18.6917 285.976 19.5167 286.442 20.05C286.926 20.5667 287.601 20.825 288.467 20.825C289.067 20.825 289.601 20.7 290.067 20.45C290.534 20.1833 290.901 19.7833 291.167 19.25C291.434 18.7 291.567 18.0167 291.567 17.2V10.55H295.467V24H291.767V20.3L292.442 21.375C291.992 22.3083 291.326 23.0167 290.442 23.5C289.576 23.9667 288.626 24.2 287.592 24.2ZM307.255 10.35C308.322 10.35 309.272 10.5667 310.105 11C310.955 11.4167 311.622 12.0667 312.105 12.95C312.589 13.8167 312.83 14.9333 312.83 16.3V24H308.93V16.9C308.93 15.8167 308.689 15.0167 308.205 14.5C307.739 13.9833 307.072 13.725 306.205 13.725C305.589 13.725 305.03 13.8583 304.53 14.125C304.047 14.375 303.664 14.7667 303.38 15.3C303.114 15.8333 302.98 16.5167 302.98 17.35V24H299.08V10.55H302.805V14.275L302.105 13.15C302.589 12.25 303.28 11.5583 304.18 11.075C305.08 10.5917 306.105 10.35 307.255 10.35ZM322.238 24.2C320.971 24.2 319.83 23.9167 318.813 23.35C317.796 22.7667 316.988 21.9583 316.388 20.925C315.805 19.8917 315.513 18.675 315.513 17.275C315.513 15.8583 315.805 14.6333 316.388 13.6C316.988 12.5667 317.796 11.7667 318.813 11.2C319.83 10.6333 320.971 10.35 322.238 10.35C323.371 10.35 324.363 10.6 325.213 11.1C326.063 11.6 326.721 12.3583 327.188 13.375C327.655 14.3917 327.888 15.6917 327.888 17.275C327.888 18.8417 327.663 20.1417 327.213 21.175C326.763 22.1917 326.113 22.95 325.263 23.45C324.43 23.95 323.421 24.2 322.238 24.2ZM322.913 21C323.546 21 324.121 20.85 324.638 20.55C325.155 20.25 325.563 19.825 325.863 19.275C326.18 18.7083 326.338 18.0417 326.338 17.275C326.338 16.4917 326.18 15.825 325.863 15.275C325.563 14.725 325.155 14.3 324.638 14C324.121 13.7 323.546 13.55 322.913 13.55C322.263 13.55 321.68 13.7 321.163 14C320.646 14.3 320.23 14.725 319.913 15.275C319.613 15.825 319.463 16.4917 319.463 17.275C319.463 18.0417 319.613 18.7083 319.913 19.275C320.23 19.825 320.646 20.25 321.163 20.55C321.68 20.85 322.263 21 322.913 21ZM326.438 24V21.25L326.513 17.25L326.263 13.275V5.45H330.163V24H326.438Z" fill="#23272E"/>
<defs>
<linearGradient id="paint0_linear_2016_774" x1="9007.21" y1="334.949" x2="9007.21" y2="13574.8" gradientUnits="userSpaceOnUse">
<stop stop-color="#8D9000" stop-opacity="0.45"/>
<stop offset="1" stop-color="#627501" stop-opacity="0.71"/>
</linearGradient>
<linearGradient id="paint1_linear_2016_774" x1="15077.5" y1="334.949" x2="15077.5" y2="12648.7" gradientUnits="userSpaceOnUse">
<stop stop-color="#8D9000" stop-opacity="0.45"/>
<stop offset="1" stop-color="#627501" stop-opacity="0.71"/>
</linearGradient>
<linearGradient id="paint2_linear_2016_774" x1="9832.82" y1="334.949" x2="9832.82" y2="6954.97" gradientUnits="userSpaceOnUse">
<stop stop-color="#8D9000" stop-opacity="0.45"/>
<stop offset="1" stop-color="#627501" stop-opacity="0.71"/>
</linearGradient>
<linearGradient id="paint3_linear_2016_774" x1="-8549.92" y1="334.949" x2="-8549.92" y2="13574.8" gradientUnits="userSpaceOnUse">
<stop stop-color="#8D9000" stop-opacity="0.45"/>
<stop offset="1" stop-color="#627501" stop-opacity="0.71"/>
</linearGradient>
<linearGradient id="paint4_linear_2016_774" x1="-14620.2" y1="334.949" x2="-14620.2" y2="12648.7" gradientUnits="userSpaceOnUse">
<stop stop-color="#8D9000" stop-opacity="0.45"/>
<stop offset="1" stop-color="#627501" stop-opacity="0.71"/>
</linearGradient>
<linearGradient id="paint5_linear_2016_774" x1="-9375.54" y1="334.949" x2="-9375.54" y2="6954.97" gradientUnits="userSpaceOnUse">
<stop stop-color="#8D9000" stop-opacity="0.45"/>
<stop offset="1" stop-color="#627501" stop-opacity="0.71"/>
</linearGradient>
<linearGradient id="paint6_linear_2016_774" x1="487.255" y1="100.826" x2="289.079" y2="675.917" gradientUnits="userSpaceOnUse">
<stop stop-color="#E2C1A9"/>
<stop offset="1" stop-color="#F3DAC7"/>
</linearGradient>
<linearGradient id="paint7_linear_2016_774" x1="375.059" y1="87.3149" x2="188.329" y2="548.824" gradientUnits="userSpaceOnUse">
<stop stop-color="#E2C1A9"/>
<stop offset="1" stop-color="#F3DAC7"/>
</linearGradient>
<linearGradient id="paint8_linear_2016_774" x1="461.543" y1="85.9995" x2="461.543" y2="1341.87" gradientUnits="userSpaceOnUse">
<stop stop-color="#FAC59E"/>
<stop offset="1" stop-color="#FFD5B5"/>
</linearGradient>
<linearGradient id="paint9_linear_2016_774" x1="328.897" y1="23.8977" x2="250.13" y2="515.94" gradientUnits="userSpaceOnUse">
<stop stop-color="#E2C1A9"/>
<stop offset="1" stop-color="#F3DAC7"/>
</linearGradient>
</defs>
</svg>
